<svg width="536" height="286" viewBox="0 0 536 286" fill="none" xmlns="http://www.w3.org/2000/svg">
<path d="M88.4839 79.228C81.8539 79.228 77.6039 81.404 77.6039 85.042C77.6039 88.612 81.8539 90.788 88.4839 90.788C95.1479 90.788 99.3979 88.612 99.3979 85.042C99.3979 81.404 95.1479 79.228 88.4839 79.228ZM88.4839 81.948C93.0739 81.948 95.8619 83.07 95.8619 85.042C95.8619 86.946 93.0739 88.068 88.4839 88.068C83.9279 88.068 81.1399 86.946 81.1399 85.042C81.1399 83.07 83.9279 81.948 88.4839 81.948ZM77.8759 61.242V64.064H97.7319V61.242H77.8759ZM74.6459 73.958V76.78H102.628V73.958H74.6459ZM85.6279 68.212V74.706H89.1639V68.212H85.6279ZM95.6579 61.242V63.826C95.6579 66.24 95.6579 68.518 94.8079 71.714L98.3439 72.088C99.1939 68.892 99.1939 66.308 99.1939 63.826V61.242H95.6579ZM112.689 79.16V90.822H116.327V79.16H112.689ZM123.399 79.16V90.822H127.037V79.16H123.399ZM105.855 77.256V80.146H134.007V77.256H105.855ZM119.863 60.902C113.335 60.902 108.847 63.554 108.847 67.77C108.847 71.918 113.335 74.604 119.863 74.604C126.425 74.604 130.879 71.918 130.879 67.77C130.879 63.554 126.425 60.902 119.863 60.902ZM119.863 63.758C124.317 63.758 127.241 65.254 127.241 67.77C127.241 70.252 124.317 71.748 119.863 71.748C115.409 71.748 112.485 70.252 112.485 67.77C112.485 65.254 115.409 63.758 119.863 63.758ZM149.169 62.976V64.132C149.169 67.804 144.749 71.34 138.663 72.156L140.023 74.944C146.993 73.89 152.263 69.64 152.263 64.132V62.976H149.169ZM150.155 62.976V64.132C150.155 69.64 155.391 73.89 162.395 74.944L163.721 72.156C157.669 71.34 153.215 67.804 153.215 64.132V62.976H150.155ZM149.339 79.194V90.822H152.875V79.194H149.339ZM137.167 77.188V80.078H165.251V77.188H137.167ZM139.717 61.514V64.37H162.599V61.514H139.717ZM182.69 79.024C176.298 79.024 172.32 81.2 172.32 84.906C172.32 88.646 176.298 90.822 182.69 90.822C189.048 90.822 193.026 88.646 193.026 84.906C193.026 81.2 189.048 79.024 182.69 79.024ZM182.69 81.846C187.008 81.846 189.49 82.9 189.49 84.906C189.49 86.946 187.008 88.034 182.69 88.034C178.372 88.034 175.856 86.946 175.856 84.906C175.856 82.9 178.372 81.846 182.69 81.846ZM189.116 59.746V78.242H192.686V59.746H189.116ZM191.7 67.294V70.252H197.072V67.294H191.7ZM169.532 61.718V76.168H184.152V61.718H180.65V66.002H173.068V61.718H169.532ZM173.068 68.79H180.65V73.346H173.068V68.79ZM216.572 88.476C222.692 88.476 226.228 84.77 226.228 80.554C226.228 76.984 224.358 74.876 221.23 73.618L218.068 72.36C215.824 71.476 214.26 70.932 214.26 69.504C214.26 68.178 215.382 67.43 217.252 67.43C219.224 67.43 220.788 68.11 222.454 69.368L225.48 65.56C223.27 63.35 220.176 62.228 217.252 62.228C211.88 62.228 208.072 65.628 208.072 69.878C208.072 73.55 210.554 75.76 213.206 76.814L216.436 78.174C218.612 79.092 220.006 79.568 220.006 81.03C220.006 82.39 218.952 83.24 216.708 83.24C214.702 83.24 212.356 82.186 210.588 80.656L207.12 84.838C209.738 87.252 213.274 88.476 216.572 88.476ZM229.957 88H236.009V75.08C237.165 73.958 237.981 73.346 239.341 73.346C240.871 73.346 241.585 74.094 241.585 76.78V88H247.637V76.032C247.637 71.204 245.835 68.178 241.619 68.178C239.001 68.178 237.097 69.504 235.703 70.796L236.009 67.362V60.834H229.957V88ZM257.232 88.476C259.374 88.476 261.176 87.49 262.774 86.062H262.944L263.352 88H268.282V77.018C268.282 70.966 265.46 68.178 260.462 68.178C257.436 68.178 254.682 69.198 252.132 70.728L254.24 74.706C256.178 73.618 257.776 73.006 259.306 73.006C261.278 73.006 262.094 73.924 262.23 75.488C254.682 76.304 251.486 78.514 251.486 82.594C251.486 85.824 253.662 88.476 257.232 88.476ZM259.306 83.784C258.048 83.784 257.232 83.24 257.232 82.118C257.232 80.758 258.456 79.636 262.23 79.16V82.254C261.346 83.206 260.53 83.784 259.306 83.784ZM272.955 88H278.905V83.206L281.149 80.656L285.331 88H291.893L284.685 76.712L291.417 68.654H284.787L279.075 75.93H278.905V60.834H272.955V88ZM294.504 88H300.556V68.654H294.504V88ZM297.53 65.968C299.536 65.968 300.896 64.744 300.896 62.84C300.896 60.97 299.536 59.746 297.53 59.746C295.49 59.746 294.164 60.97 294.164 62.84C294.164 64.744 295.49 65.968 297.53 65.968ZM310.867 94.97L314.641 93.406C311.819 88.374 310.595 82.662 310.595 77.188C310.595 71.748 311.819 66.002 314.641 60.97L310.867 59.406C307.603 64.744 305.733 70.354 305.733 77.188C305.733 84.056 307.603 89.632 310.867 94.97ZM323.087 61.412V62.398C323.087 65.424 321.625 68.314 317.341 69.64L319.993 73.652C325.297 71.952 327.235 67.532 327.235 62.398V61.412H323.087ZM324.311 61.412V62.398C324.311 67.362 325.909 71.34 330.737 72.904L333.355 68.926C329.683 67.838 328.357 65.322 328.357 62.398V61.412H324.311ZM341.005 59.338V91.23H346.207V59.338H341.005ZM334.443 59.712V89.87H339.543V59.712H334.443ZM329.921 79.602V83.682H336.041V79.602H329.921ZM323.053 76.61V88.884H328.221V76.61H323.053ZM317.885 78.922C321.863 78.922 328.289 78.82 333.389 77.698L333.049 73.72C328.085 74.468 321.421 74.536 317.307 74.536L317.885 78.922ZM370.242 59.27V91.298H375.75V59.27H370.242ZM358.376 61.378C353.48 61.378 349.842 65.832 349.842 72.904C349.842 80.044 353.48 84.498 358.376 84.498C363.272 84.498 366.91 80.044 366.91 72.904C366.91 65.832 363.272 61.378 358.376 61.378ZM358.376 66.376C360.348 66.376 361.64 68.45 361.64 72.904C361.64 77.426 360.348 79.5 358.376 79.5C356.404 79.5 355.112 77.426 355.112 72.904C355.112 68.45 356.404 66.376 358.376 66.376ZM392.475 62.228V62.942C392.475 72.122 390.061 77.698 380.371 82.56L383.227 86.81C395.467 80.69 397.779 72.394 397.779 62.228H392.475ZM382.377 62.228V66.546H395.161V62.228H382.377ZM392.645 70.014L380.711 70.626L381.357 75.182L392.645 74.196V70.014ZM401.655 59.304V91.196H407.163V59.304H401.655ZM416.137 94.97C419.401 89.632 421.271 84.056 421.271 77.188C421.271 70.354 419.401 64.744 416.137 59.406L412.363 60.97C415.185 66.002 416.409 71.748 416.409 77.188C416.409 82.662 415.185 88.374 412.363 93.406L416.137 94.97ZM446.104 59.712V90.788H449.674V59.712H446.104ZM448.722 72.02V74.944H454.332V72.02H448.722ZM438.046 63.01V63.622C438.046 71.918 433.932 78.14 425.534 82.424L427.54 85.144C437.706 80.044 441.548 72.054 441.548 63.01H438.046ZM427.098 63.01V65.9H439.882V63.01H427.098ZM24.061 106.712V137.856H27.631V106.712H24.061ZM11.073 109.024C6.44902 109.024 3.08302 113.274 3.08302 119.972C3.08302 126.67 6.44902 130.954 11.073 130.954C15.731 130.954 19.097 126.67 19.097 119.972C19.097 113.274 15.731 109.024 11.073 109.024ZM11.073 112.254C13.793 112.254 15.663 115.144 15.663 119.972C15.663 124.834 13.793 127.758 11.073 127.758C8.35302 127.758 6.48302 124.834 6.48302 119.972C6.48302 115.144 8.35302 112.254 11.073 112.254ZM39.4264 108.582V112.458C39.4264 115.994 37.3184 119.972 33.1364 121.842L35.0404 124.63C39.8344 122.488 42.2144 117.422 42.2144 112.458V108.582H39.4264ZM40.0384 108.582V112.458C40.0384 117.354 42.3504 121.876 47.0084 123.814L48.8784 121.094C44.8664 119.428 42.8604 115.96 42.8604 112.458V108.582H40.0384ZM56.2564 106.78V125.582H59.6224V106.78H56.2564ZM51.8024 114.6V117.524H57.2424V114.6H51.8024ZM49.6264 107.29V125.412H52.9584V107.29H49.6264ZM38.5764 127.112V130.002H56.0864V137.822H59.6224V127.112H38.5764ZM72.1997 109.874V112.152C72.1997 116.334 69.4117 120.448 64.5837 122.08L66.3857 124.902C71.9277 122.998 75.0897 117.898 75.0897 112.152V109.874H72.1997ZM72.9137 109.874V112.152C72.9137 117.49 75.9397 122.386 81.3117 124.256L83.0797 121.434C78.4217 119.836 75.7697 115.994 75.7697 112.152V109.874H72.9137ZM81.3457 114.532V117.456H87.8057V114.532H81.3457ZM65.6037 108.684V111.54H82.2637V108.684H65.6037ZM69.4117 126.84V129.73H86.7857V137.822H90.3557V126.84H69.4117ZM86.7857 106.746V125.276H90.3557V106.746H86.7857ZM117.927 106.78V129.288H121.497V106.78H117.927ZM101.199 134.32V137.21H122.381V134.32H101.199ZM101.199 127.01V135.408H104.769V127.01H101.199ZM104.735 108.854C100.043 108.854 96.4731 112.05 96.4731 116.606C96.4731 121.094 100.043 124.358 104.735 124.358C109.427 124.358 112.963 121.094 112.963 116.606C112.963 112.05 109.427 108.854 104.735 108.854ZM104.735 111.914C107.455 111.914 109.495 113.75 109.495 116.606C109.495 119.394 107.455 121.23 104.735 121.23C102.015 121.23 99.9411 119.394 99.9411 116.606C99.9411 113.75 102.015 111.914 104.735 111.914ZM134.809 131.09V134.014H162.961V131.09H134.809ZM147.049 123.576V131.838H150.585V123.576H147.049ZM137.937 109.194V124.12H159.663V109.194H137.937ZM156.195 112.05V121.264H141.439V112.05H156.195ZM188.118 106.78V124.426H191.688V106.78H188.118ZM171.356 125.99V137.448H191.688V125.99H171.356ZM188.186 128.812V134.592H174.858V128.812H188.186ZM174.926 108.31C170.166 108.31 166.664 111.302 166.664 115.654C166.664 119.938 170.166 122.998 174.926 122.998C179.686 122.998 183.154 119.938 183.154 115.654C183.154 111.302 179.686 108.31 174.926 108.31ZM174.926 111.268C177.68 111.268 179.686 113.002 179.686 115.654C179.686 118.306 177.68 120.006 174.926 120.006C172.172 120.006 170.132 118.306 170.132 115.654C170.132 113.002 172.172 111.268 174.926 111.268ZM211.236 126.228C204.606 126.228 200.356 128.404 200.356 132.042C200.356 135.612 204.606 137.788 211.236 137.788C217.9 137.788 222.15 135.612 222.15 132.042C222.15 128.404 217.9 126.228 211.236 126.228ZM211.236 128.948C215.826 128.948 218.614 130.07 218.614 132.042C218.614 133.946 215.826 135.068 211.236 135.068C206.68 135.068 203.892 133.946 203.892 132.042C203.892 130.07 206.68 128.948 211.236 128.948ZM200.628 108.242V111.064H220.484V108.242H200.628ZM197.398 120.958V123.78H225.38V120.958H197.398ZM208.38 115.212V121.706H211.916V115.212H208.38ZM218.41 108.242V110.826C218.41 113.24 218.41 115.518 217.56 118.714L221.096 119.088C221.946 115.892 221.946 113.308 221.946 110.826V108.242H218.41ZM249.279 106.746V129.254H252.883V106.746H249.279ZM251.829 115.824V118.782H257.269V115.824H251.829ZM240.745 109.126V110.792C240.745 116.3 236.257 120.822 228.539 123.1L230.035 125.956C239.113 123.202 244.519 117.32 244.519 109.126H240.745ZM229.831 109.126V112.016H242.615V109.126H229.831ZM233.197 134.32V137.21H254.107V134.32H233.197ZM233.197 126.976V135.544H236.767V126.976H233.197ZM273.926 107.222C266.956 107.222 262.876 109.126 262.876 112.594C262.876 116.028 266.956 117.932 273.926 117.932C280.896 117.932 285.01 116.028 285.01 112.594C285.01 109.126 280.896 107.222 273.926 107.222ZM273.926 109.874C278.754 109.874 281.304 110.826 281.304 112.594C281.304 114.362 278.754 115.28 273.926 115.28C269.132 115.28 266.548 114.362 266.548 112.594C266.548 110.826 269.132 109.874 273.926 109.874ZM259.884 119.734V122.556H287.968V119.734H259.884ZM263.216 124.834V127.486H280.964V129.73H263.25V135.578H266.786V132.246H284.466V124.834H263.216ZM263.25 134.796V137.55H285.35V134.796H263.25ZM321.919 106.746V137.822H325.319V106.746H321.919ZM317.159 118.986V121.876H322.769V118.986H317.159ZM314.915 107.358V136.292H318.213V107.358H314.915ZM299.819 127.486V130.444H301.927C306.279 130.444 309.475 130.308 313.215 129.56L312.909 126.636C309.271 127.35 306.143 127.486 301.927 127.486H299.819ZM299.819 110.452V128.88H303.355V113.342H311.345V110.452H299.819ZM344.05 113.41V116.3H353.026V113.41H344.05ZM344.05 123.168V126.058H353.026V123.168H344.05ZM338.474 109.024C333.884 109.024 330.62 113.274 330.62 119.972C330.62 126.67 333.884 130.954 338.474 130.954C343.064 130.954 346.328 126.67 346.328 119.972C346.328 113.274 343.064 109.024 338.474 109.024ZM338.474 112.254C341.16 112.254 342.962 115.144 342.962 119.972C342.962 124.834 341.16 127.758 338.474 127.758C335.822 127.758 333.986 124.834 333.986 119.972C333.986 115.144 335.822 112.254 338.474 112.254ZM352.346 106.712V137.856H355.882V106.712H352.346ZM368.956 111.778V114.634H384.12V111.778H368.956ZM376.572 116.402C372.696 116.402 369.84 119.394 369.84 123.644C369.84 127.894 372.696 130.852 376.572 130.852C380.482 130.852 383.304 127.894 383.304 123.644C383.304 119.394 380.482 116.402 376.572 116.402ZM376.572 119.394C378.646 119.394 380.142 121.094 380.142 123.644C380.142 126.228 378.646 127.86 376.572 127.86C374.498 127.86 373.002 126.228 373.002 123.644C373.002 121.094 374.498 119.394 376.572 119.394ZM392.076 106.746V137.822H395.476V106.746H392.076ZM387.656 119.632V122.522H393.198V119.632H387.656ZM385.48 107.392V136.394H388.812V107.392H385.48ZM374.838 107.63V113.546H378.34V107.63H374.838ZM403.735 121.4V124.256H425.291V121.4H403.735ZM400.301 130.886V133.81H428.453V130.886H400.301ZM403.735 109.466V122.624H407.271V112.39H425.019V109.466H403.735ZM453.611 106.746V123.95H457.181V106.746H453.611ZM433.177 120.448V123.338H435.761C441.711 123.338 445.893 123.202 450.789 122.42L450.381 119.53C445.621 120.312 441.575 120.448 435.761 120.448H433.177ZM433.109 108.208V111.064H443.785V114.294H433.177V122.352H436.645V117.014H447.287V108.208H433.109ZM436.849 125.378V137.448H457.181V125.378H453.645V128.574H440.351V125.378H436.849ZM440.351 131.328H453.645V134.558H440.351V131.328ZM484.956 106.746V137.822H488.492V106.746H484.956ZM464.658 109.738V129.016H468.194V109.738H464.658ZM464.658 126.908V129.968H467.31C472.138 129.968 477.136 129.628 482.508 128.506L482.1 125.514C476.898 126.568 471.934 126.908 467.31 126.908H464.658ZM514.635 106.712V137.856H518.205V106.712H514.635ZM517.389 118.646V121.604H523.033V118.646H517.389ZM495.391 127.282V130.24H497.907C503.551 130.24 507.699 130.07 512.459 129.22L512.085 126.228C507.495 127.078 503.415 127.282 497.907 127.282H495.391ZM495.391 109.67V128.642H498.927V112.56H509.841V109.67H495.391ZM528.369 127.044H530.987L531.531 113.444L531.633 109.364H527.689L527.791 113.444L528.369 127.044ZM529.661 135.476C531.157 135.476 532.279 134.32 532.279 132.722C532.279 131.09 531.157 129.968 529.661 129.968C528.199 129.968 527.043 131.09 527.043 132.722C527.043 134.32 528.199 135.476 529.661 135.476Z" fill="white"/>
<path d="M288 0L288 10L248 10L248 -1.74846e-06L288 0Z" fill="#3769EF"/>
<path d="M45.3136 189.718V190.942H60.0196V189.718H45.3136ZM46.9516 192.49V193.714H56.6356V197.404H58.1296V192.49H46.9516ZM47.2576 187.036V188.206H58.2916V187.036H47.2576ZM47.2576 181.564V187.576H48.7336V182.734H58.2196V181.564H47.2576ZM48.3016 184.264V185.398H57.7876V184.264H48.3016ZM69.5582 183.436V184.606H74.1482V183.436H69.5582ZM69.5582 186.406V187.576H74.1482V186.406H69.5582ZM73.7702 181.132V189.61H75.2642V181.132H73.7702ZM64.7882 190.42V191.608H73.7882V193.156H64.8242V196.774H66.2822V194.272H75.2642V190.42H64.7882ZM64.8242 196V197.188H75.8582V196H64.8242ZM62.6822 181.87V188.98H70.0262V181.87H68.5682V184.21H64.1582V181.87H62.6822ZM64.1582 185.38H68.5682V187.774H64.1582V185.38ZM89.5728 181.15V193.354H91.0668V181.15H89.5728ZM90.5988 186.478V187.738H93.4788V186.478H90.5988ZM78.4848 183.112V184.318H88.0968V183.112H78.4848ZM83.2908 185.218C80.9688 185.218 79.3848 186.424 79.3848 188.26C79.3848 190.078 80.9688 191.284 83.2908 191.284C85.5948 191.284 87.1788 190.078 87.1788 188.26C87.1788 186.424 85.5948 185.218 83.2908 185.218ZM83.2908 186.388C84.7488 186.388 85.7568 187.126 85.7568 188.26C85.7568 189.376 84.7488 190.114 83.2908 190.114C81.8148 190.114 80.8068 189.376 80.8068 188.26C80.8068 187.126 81.8148 186.388 83.2908 186.388ZM82.5348 181.132V183.742H84.0288V181.132H82.5348ZM80.9328 195.82V197.044H91.8048V195.82H80.9328ZM80.9328 192.382V196.342H82.4268V192.382H80.9328ZM110.157 181.132V189.34H111.651V181.132H110.157ZM111.237 184.498V185.74H114.063V184.498H111.237ZM99.8068 181.834V188.08H101.301V181.834H99.8068ZM99.8068 187.288V188.548H101.085C103.497 188.548 105.927 188.386 108.663 187.828L108.483 186.586C105.837 187.126 103.407 187.288 101.085 187.288H99.8068ZM101.319 190.114V191.32H110.175V192.976H101.355V196.594H102.831V194.128H111.651V190.114H101.319ZM101.355 195.982V197.188H112.245V195.982H101.355ZM131.443 181.15V193.174H132.955V181.15H131.443ZM122.497 195.82V197.044H133.441V195.82H122.497ZM122.497 192.04V196.468H123.973V192.04H122.497ZM124.027 184.246V184.93C124.027 187.18 122.353 189.232 119.941 190.024L120.679 191.194C123.397 190.258 125.251 187.846 125.251 184.93V184.246H124.027ZM124.279 184.246V184.93C124.279 187.72 126.151 190.024 128.905 190.906L129.625 189.736C127.195 188.98 125.503 187.054 125.503 184.93V184.246H124.279ZM120.319 183.31V184.516H129.175V183.31H120.319ZM124.027 181.204V183.886H125.503V181.204H124.027ZM138.011 182.194V183.4H148.181V182.194H138.011ZM136.175 189.178V190.402H150.881V189.178H136.175ZM142.745 189.988V197.422H144.239V189.988H142.745ZM147.479 182.194V183.598C147.479 185.236 147.479 187.126 146.849 189.754L148.325 189.952C148.937 187.198 148.937 185.29 148.937 183.598V182.194H147.479ZM153.166 199.42C154.804 198.754 155.794 197.404 155.794 195.658C155.794 194.47 155.272 193.732 154.408 193.732C153.742 193.732 153.184 194.164 153.184 194.884C153.184 195.622 153.742 196.036 154.372 196.036C154.696 196.036 154.984 195.946 155.2 195.676L154.408 194.488L154.588 195.964C154.588 197.062 153.904 197.962 152.788 198.466L153.166 199.42ZM165.268 183.67V184.894H170.164V183.67H165.268ZM165.268 187.576V188.8H170.164V187.576H165.268ZM169.624 181.15V193.174H171.118V181.15H169.624ZM160.732 195.82V197.044H171.568V195.82H160.732ZM160.732 191.932V196.36H162.226V191.932H160.732ZM162.172 182.176C159.778 182.176 157.978 183.85 157.978 186.244C157.978 188.638 159.778 190.312 162.172 190.312C164.566 190.312 166.366 188.638 166.366 186.244C166.366 183.85 164.566 182.176 162.172 182.176ZM162.172 183.49C163.756 183.49 164.944 184.642 164.944 186.244C164.944 187.864 163.756 189.016 162.172 189.016C160.588 189.016 159.418 187.864 159.418 186.244C159.418 184.642 160.588 183.49 162.172 183.49ZM186.128 181.15V193.03H187.64V181.15H186.128ZM177.182 195.82V197.044H188.126V195.82H177.182ZM177.182 191.806V196.234H178.658V191.806H177.182ZM178.91 182.266C176.48 182.266 174.662 183.922 174.662 186.28C174.662 188.62 176.48 190.294 178.91 190.294C181.34 190.294 183.14 188.62 183.14 186.28C183.14 183.922 181.34 182.266 178.91 182.266ZM178.91 183.562C180.494 183.562 181.7 184.678 181.7 186.28C181.7 187.864 180.494 188.98 178.91 188.98C177.326 188.98 176.12 187.864 176.12 186.28C176.12 184.678 177.326 183.562 178.91 183.562ZM191.293 199.42C192.931 198.754 193.921 197.404 193.921 195.658C193.921 194.47 193.399 193.732 192.535 193.732C191.869 193.732 191.311 194.164 191.311 194.884C191.311 195.622 191.869 196.036 192.499 196.036C192.823 196.036 193.111 195.946 193.327 195.676L192.535 194.488L192.715 195.964C192.715 197.062 192.031 197.962 190.915 198.466L191.293 199.42ZM206.869 181.114V197.404H208.381V181.114H206.869ZM207.967 187.72V188.962H210.973V187.72H207.967ZM202.711 182.878V183.112C202.711 187.414 200.461 190.888 195.961 193.174L196.789 194.326C202.045 191.68 204.169 187.504 204.169 182.878H202.711ZM196.717 182.878V184.102H203.485V182.878H196.717ZM218.801 182.428V182.914C218.801 184.768 216.155 186.244 213.239 186.586L213.779 187.756C217.145 187.342 220.133 185.542 220.133 182.914V182.428H218.801ZM219.431 182.428V182.914C219.431 185.542 222.401 187.342 225.767 187.756L226.307 186.586C223.391 186.262 220.745 184.768 220.745 182.914V182.428H219.431ZM213.761 181.798V183.004H225.803V181.798H213.761ZM212.411 189.286V190.51H227.171V189.286H212.411ZM219.017 186.856V189.88H220.493V186.856H219.017ZM214.049 192.13V193.336H223.805V197.404H225.299V192.13H214.049ZM228.988 187.918V189.142H243.694V187.918H228.988ZM230.932 185.398V186.604H241.948V185.398H230.932ZM230.932 181.654V186.37H232.408V182.878H241.768V181.654H230.932ZM230.752 190.546V191.716H240.328V193.264H230.788V196.432H232.264V194.38H241.804V190.546H230.752ZM230.788 196.036V197.224H242.29V196.036H230.788ZM246.266 182.914V184.12H253.628V182.914H246.266ZM248.804 187.558V193.066H250.28V187.558H248.804ZM253.016 182.914V183.778C253.016 185.092 253.016 187.18 252.53 190.114L254.006 190.258C254.474 187.234 254.474 185.11 254.474 183.778V182.914H253.016ZM256.526 181.132V197.404H258.002V181.132H256.526ZM257.606 187.936V189.196H260.612V187.936H257.606ZM245.546 193.858C248.426 193.84 252.242 193.768 255.608 193.228L255.536 192.13C252.242 192.544 248.318 192.598 245.366 192.598L245.546 193.858ZM270.774 189.736V193.264H272.286V189.736H270.774ZM270.774 184.012V184.372C270.774 186.568 269.118 188.386 266.706 189.106L267.39 190.276C270.126 189.412 271.98 187.216 271.98 184.372V184.012H270.774ZM271.062 184.012V184.372C271.062 187.126 272.952 189.286 275.688 190.096L276.372 188.944C273.978 188.242 272.268 186.478 272.268 184.372V184.012H271.062ZM267.084 183.256V184.462H276.03V183.256H267.084ZM270.774 181.24V183.778H272.286V181.24H270.774ZM277.884 181.114V197.422H279.378V181.114H277.884ZM266.418 194.074C269.316 194.056 273.294 194.038 276.948 193.354L276.822 192.256C273.276 192.796 269.172 192.814 266.202 192.814L266.418 194.074ZM294.515 181.15V193.066H296.027V181.15H294.515ZM285.569 195.82V197.044H296.513V195.82H285.569ZM285.569 191.968V196.396H287.045V191.968H285.569ZM286.919 182.032V183.688C286.919 186.208 285.299 188.584 282.851 189.538L283.625 190.744C286.361 189.628 288.161 186.856 288.161 183.688V182.032H286.919ZM287.189 182.032V183.688C287.189 186.784 288.989 189.394 291.689 190.438L292.481 189.232C290.051 188.35 288.413 186.136 288.413 183.688V182.032H287.189ZM303.532 182.536V185.452C303.532 188.53 301.57 191.644 299.158 192.796L300.076 194.02C302.74 192.67 304.756 189.196 304.756 185.452V182.536H303.532ZM303.784 182.536V185.452C303.784 189.07 305.818 192.418 308.464 193.714L309.364 192.526C306.952 191.41 305.008 188.422 305.008 185.452V182.536H303.784ZM311.056 181.114V197.422H312.55V181.114H311.056ZM324.158 184.066V185.308H328.316V184.066H324.158ZM327.686 181.132V189.52H329.18V181.132H327.686ZM318.704 190.366V191.554H327.704V193.138H318.758V196.72H320.216V194.254H329.18V190.366H318.704ZM318.758 196V197.188H329.792V196H318.758ZM319.856 181.636V183.166C319.856 185.524 318.236 187.558 315.788 188.386L316.562 189.574C319.28 188.602 321.08 186.172 321.08 183.166V181.636H319.856ZM320.108 181.636V183.166C320.108 185.92 321.908 188.26 324.536 189.196L325.31 188.026C322.952 187.252 321.314 185.29 321.314 183.166V181.636H320.108ZM337.639 182.302C335.101 182.302 333.265 183.868 333.265 186.136C333.265 188.422 335.101 189.988 337.639 189.988C340.177 189.988 341.995 188.422 341.995 186.136C341.995 183.868 340.177 182.302 337.639 182.302ZM337.639 183.598C339.313 183.598 340.537 184.624 340.537 186.136C340.537 187.648 339.313 188.692 337.639 188.692C335.947 188.692 334.723 187.648 334.723 186.136C334.723 184.624 335.947 183.598 337.639 183.598ZM344.119 181.114V197.422H345.613V181.114H344.119ZM332.653 193.858C335.551 193.858 339.529 193.84 343.183 193.138L343.057 192.04C339.511 192.598 335.407 192.616 332.437 192.616L332.653 193.858ZM359.465 182.734V183.418C359.465 185.56 356.675 187.432 353.813 187.846L354.389 189.034C357.665 188.476 360.761 186.334 360.761 183.418V182.734H359.465ZM359.843 182.734V183.418C359.843 186.334 362.921 188.476 366.215 189.034L366.773 187.846C363.929 187.432 361.121 185.56 361.121 183.418V182.734H359.843ZM359.519 191.194V197.404H360.995V191.194H359.519ZM352.949 190.402V191.626H367.655V190.402H352.949ZM354.317 182.14V183.346H366.233V182.14H354.317ZM373.503 182.878V184.192C373.503 186.514 371.883 188.62 369.435 189.484L370.191 190.672C372.927 189.682 374.727 187.18 374.727 184.192V182.878H373.503ZM373.773 182.878V184.174C373.773 186.946 375.501 189.268 378.219 190.168L378.939 188.998C376.545 188.206 374.997 186.298 374.997 184.174V182.878H373.773ZM369.885 182.338V183.562H378.579V182.338H369.885ZM380.631 181.132V190.942H382.125V181.132H380.631ZM381.711 185.254V186.514H384.537V185.254H381.711ZM376.941 191.374C373.629 191.374 371.595 192.472 371.595 194.362C371.595 196.27 373.629 197.368 376.941 197.368C380.253 197.368 382.287 196.27 382.287 194.362C382.287 192.472 380.253 191.374 376.941 191.374ZM376.941 192.58C379.353 192.58 380.829 193.228 380.829 194.362C380.829 195.514 379.353 196.198 376.941 196.198C374.529 196.198 373.053 195.514 373.053 194.362C373.053 193.228 374.529 192.58 376.941 192.58ZM390.937 182.176V188.836H398.515V182.176H390.937ZM397.075 183.382V187.648H392.377V183.382H397.075ZM401.917 181.132V190.474H403.411V181.132H401.917ZM397.507 192.4V192.706C397.507 194.326 394.915 195.874 392.089 196.198L392.593 197.35C395.887 196.918 398.785 195.046 398.785 192.706V192.4H397.507ZM397.723 192.4V192.706C397.723 194.992 400.549 196.9 403.861 197.35L404.365 196.198C401.539 195.856 399.019 194.272 399.019 192.706V192.4H397.723ZM392.737 191.572V192.742H403.789V191.572H392.737ZM397.507 190.006V192.094H399.019V190.006H397.507ZM417.191 182.734V183.418C417.191 185.56 414.401 187.432 411.539 187.846L412.115 189.034C415.391 188.476 418.487 186.334 418.487 183.418V182.734H417.191ZM417.569 182.734V183.418C417.569 186.334 420.647 188.476 423.941 189.034L424.499 187.846C421.655 187.432 418.847 185.56 418.847 183.418V182.734H417.569ZM417.245 191.194V197.404H418.721V191.194H417.245ZM410.675 190.402V191.626H425.381V190.402H410.675ZM412.043 182.14V183.346H423.959V182.14H412.043ZM434.668 191.338C431.356 191.338 429.322 192.454 429.322 194.362C429.322 196.27 431.356 197.386 434.668 197.386C437.98 197.386 440.014 196.27 440.014 194.362C440.014 192.454 437.98 191.338 434.668 191.338ZM434.668 192.544C437.08 192.544 438.556 193.21 438.556 194.362C438.556 195.532 437.08 196.198 434.668 196.198C432.256 196.198 430.78 195.532 430.78 194.362C430.78 193.21 432.256 192.544 434.668 192.544ZM438.358 181.132V190.906H439.852V181.132H438.358ZM439.438 185.218V186.478H442.264V185.218H439.438ZM427.9 182.158V189.664H435.424V182.158H433.966V184.588H429.376V182.158H427.9ZM429.376 185.776H433.966V188.458H429.376V185.776ZM447.411 186.64V189.718H448.887V186.64H447.411ZM453.387 186.64V189.718H454.863V186.64H453.387ZM443.775 189.178V190.384H458.481V189.178H443.775ZM451.119 191.608C447.627 191.608 445.539 192.634 445.539 194.488C445.539 196.342 447.627 197.386 451.119 197.386C454.611 197.386 456.699 196.342 456.699 194.488C456.699 192.634 454.611 191.608 451.119 191.608ZM451.119 192.76C453.675 192.76 455.187 193.39 455.187 194.488C455.187 195.604 453.675 196.216 451.119 196.216C448.581 196.216 447.051 195.604 447.051 194.488C447.051 193.39 448.581 192.76 451.119 192.76ZM451.137 181.42C447.591 181.42 445.413 182.554 445.413 184.462C445.413 186.352 447.591 187.468 451.137 187.468C454.665 187.468 456.861 186.352 456.861 184.462C456.861 182.554 454.665 181.42 451.137 181.42ZM451.137 182.59C453.729 182.59 455.331 183.274 455.331 184.462C455.331 185.632 453.729 186.316 451.137 186.316C448.545 186.316 446.943 185.632 446.943 184.462C446.943 183.274 448.545 182.59 451.137 182.59ZM466.957 189.772V192.58H468.433V189.772H466.957ZM460.333 188.98V190.204H475.039V188.98H460.333ZM461.701 181.636V182.86H473.653V181.636H461.701ZM461.773 186.262V187.486H473.581V186.262H461.773ZM464.167 182.176V187.054H465.661V182.176H464.167ZM469.711 182.176V187.054H471.187V182.176H469.711ZM462.133 192.094V197.188H473.239V192.094H462.133ZM471.781 193.282V195.982H463.609V193.282H471.781ZM477.63 182.914V184.12H484.992V182.914H477.63ZM480.168 187.558V193.066H481.644V187.558H480.168ZM484.38 182.914V183.778C484.38 185.092 484.38 187.18 483.894 190.114L485.37 190.258C485.838 187.234 485.838 185.11 485.838 183.778V182.914H484.38ZM487.89 181.132V197.404H489.366V181.132H487.89ZM488.97 187.936V189.196H491.976V187.936H488.97ZM476.91 193.858C479.79 193.84 483.606 193.768 486.972 193.228L486.9 192.13C483.606 192.544 479.682 192.598 476.73 192.598L476.91 193.858ZM28.8429 218.582V219.806H43.6029V218.582H28.8429ZM35.4309 219.32V225.404H36.9069V219.32H35.4309ZM30.7149 210.032V216.386H41.6949V210.032H30.7149ZM40.2369 211.238V215.18H32.1909V211.238H40.2369ZM47.2735 216.926V218.15H58.4515V216.926H47.2735ZM45.4195 221.966V223.208H60.1615V221.966H45.4195ZM47.2735 210.626V217.466H48.7675V211.868H58.2895V210.626H47.2735ZM66.0281 219.14V220.022C66.0281 221.588 64.8041 223.334 62.7521 224.072L63.5081 225.188C65.8481 224.288 67.1801 222.146 67.1801 220.022V219.14H66.0281ZM66.3521 219.14V220.022C66.3521 222.182 67.4141 224.414 69.7541 225.332L70.3841 224.198C68.4401 223.406 67.4681 221.66 67.4681 220.022V219.14H66.3521ZM72.0401 219.14V220.022C72.0401 221.426 71.0501 223.316 69.1241 224.198L69.7541 225.332C72.0761 224.342 73.1561 221.93 73.1561 220.022V219.14H72.0401ZM72.3461 219.14V220.022C72.3461 222.272 73.6421 224.324 76.0181 225.188L76.7741 224.072C74.7041 223.37 73.4981 221.696 73.4981 220.022V219.14H72.3461ZM73.8041 209.15V218.438H75.3161V209.15H73.8041ZM66.5861 210.086C64.1201 210.086 62.3381 211.634 62.3381 213.884C62.3381 216.134 64.1201 217.664 66.5861 217.664C69.0521 217.664 70.8161 216.134 70.8161 213.884C70.8161 211.634 69.0521 210.086 66.5861 210.086ZM66.5861 211.328C68.2061 211.328 69.3761 212.372 69.3761 213.884C69.3761 215.396 68.2061 216.422 66.5861 216.422C64.9661 216.422 63.7961 215.396 63.7961 213.884C63.7961 212.372 64.9661 211.328 66.5861 211.328ZM80.5167 214.01V215.234H91.5687V214.01H80.5167ZM78.5187 217.412V218.636H93.2787V217.412H78.5187ZM80.5167 209.726V214.622H81.9927V209.726H80.5167ZM80.4087 223.784V225.008H91.6587V223.784H80.4087ZM80.4087 220.256V224.108H81.8847V220.256H80.4087ZM103.351 209.906V211.49C103.351 213.92 101.713 216.17 99.2467 217.07L100.003 218.258C102.757 217.214 104.593 214.568 104.593 211.49V209.906H103.351ZM103.621 209.906V211.49C103.621 214.478 105.457 216.962 108.175 217.952L108.931 216.782C106.519 215.936 104.845 213.83 104.845 211.49V209.906H103.621ZM101.587 219.752V220.976H110.947V225.404H112.459V219.752H101.587ZM110.947 209.132V218.924H112.459V209.132H110.947ZM119.657 210.536V213.452C119.657 216.422 117.803 219.554 115.445 220.742L116.363 221.93C118.937 220.562 120.881 217.052 120.881 213.452V210.536H119.657ZM119.927 210.536V213.452C119.927 216.944 121.817 220.274 124.337 221.624L125.255 220.436C122.951 219.284 121.133 216.314 121.133 213.452V210.536H119.927ZM126.677 209.132V225.404H128.189V209.132H126.677ZM127.829 215.72V216.98H130.853V215.72H127.829ZM139.528 219.392C136.054 219.392 133.858 220.526 133.858 222.398C133.858 224.252 136.054 225.368 139.528 225.368C142.984 225.368 145.198 224.252 145.198 222.398C145.198 220.526 142.984 219.392 139.528 219.392ZM139.528 220.562C142.084 220.562 143.704 221.264 143.704 222.398C143.704 223.514 142.084 224.216 139.528 224.216C136.972 224.216 135.334 223.514 135.334 222.398C135.334 221.264 136.972 220.562 139.528 220.562ZM133.984 209.942V211.166H144.46V209.942H133.984ZM132.238 216.71V217.916H146.926V216.71H132.238ZM138.268 213.578V217.052H139.744V213.578H138.268ZM143.596 209.942V211.328C143.596 212.606 143.596 213.794 143.146 215.468L144.622 215.648C145.054 213.956 145.054 212.642 145.054 211.328V209.942H143.596ZM159.92 209.132V221.03H161.414V209.132H159.92ZM160.946 214.064V215.306H163.826V214.064H160.946ZM155.474 210.392V211.04C155.474 214.172 152.9 216.692 148.796 217.952L149.444 219.176C154.106 217.682 157.058 214.604 157.058 210.392H155.474ZM149.462 210.392V211.616H156.23V210.392H149.462ZM151.262 223.82V225.044H162.134V223.82H151.262ZM151.262 219.824V224.306H152.756V219.824H151.262ZM172.699 209.402C169.099 209.402 166.975 210.41 166.975 212.228C166.975 214.046 169.099 215.054 172.699 215.054C176.281 215.054 178.423 214.046 178.423 212.228C178.423 210.41 176.281 209.402 172.699 209.402ZM172.699 210.536C175.345 210.536 176.875 211.148 176.875 212.228C176.875 213.308 175.345 213.92 172.699 213.92C170.035 213.92 168.505 213.308 168.505 212.228C168.505 211.148 170.035 210.536 172.699 210.536ZM165.337 216.134V217.34H180.043V216.134H165.337ZM167.119 218.726V219.878H176.695V221.318H167.155V224.378H168.631V222.398H178.171V218.726H167.119ZM167.155 224.054V225.224H178.657V224.054H167.155ZM198.305 209.132V225.404H199.745V209.132H198.305ZM195.551 215.648V216.89H198.683V215.648H195.551ZM194.615 209.492V224.576H196.019V209.492H194.615ZM186.515 220.148V221.39H187.577C190.025 221.39 191.663 221.318 193.607 220.904L193.463 219.662C191.573 220.058 189.953 220.148 187.577 220.148H186.515ZM186.515 211.112V220.706H187.991V212.336H192.563V211.112H186.515ZM209.824 212.75V213.992H214.738V212.75H209.824ZM209.824 217.898V219.14H214.738V217.898H209.824ZM206.836 210.374C204.46 210.374 202.786 212.588 202.786 216.044C202.786 219.518 204.46 221.732 206.836 221.732C209.194 221.732 210.886 219.518 210.886 216.044C210.886 212.588 209.194 210.374 206.836 210.374ZM206.836 211.724C208.402 211.724 209.482 213.416 209.482 216.044C209.482 218.69 208.402 220.418 206.836 220.418C205.27 220.418 204.19 218.69 204.19 216.044C204.19 213.416 205.27 211.724 206.836 211.724ZM214.414 209.114V225.422H215.89V209.114H214.414ZM219.02 211.904V213.128H227.084V211.904H219.02ZM223.052 214.208C221.036 214.208 219.56 215.738 219.56 217.934C219.56 220.112 221.036 221.642 223.052 221.642C225.086 221.642 226.562 220.112 226.562 217.934C226.562 215.738 225.086 214.208 223.052 214.208ZM223.052 215.486C224.312 215.486 225.23 216.494 225.23 217.934C225.23 219.374 224.312 220.382 223.052 220.382C221.81 220.382 220.91 219.374 220.91 217.934C220.91 216.494 221.81 215.486 223.052 215.486ZM231.386 209.132V225.404H232.826V209.132H231.386ZM228.794 215.972V217.214H231.872V215.972H228.794ZM227.912 209.492V224.612H229.316V209.492H227.912ZM222.332 209.6V212.66H223.808V209.6H222.332ZM240.306 210.374V217.592H247.632V210.374H240.306ZM246.156 211.58V216.386H241.764V211.58H246.156ZM250.764 209.132V219.932H252.258V209.132H250.764ZM251.844 213.578V214.802H254.67V213.578H251.844ZM246.606 219.158V219.662C246.606 221.966 244.086 223.694 241.17 224.162L241.764 225.35C245.04 224.738 247.884 222.704 247.884 219.662V219.158H246.606ZM246.804 219.158V219.662C246.804 222.704 249.648 224.738 252.924 225.35L253.5 224.162C250.62 223.694 248.082 221.966 248.082 219.662V219.158H246.804ZM260.249 219.14V220.022C260.249 221.588 259.025 223.334 256.973 224.072L257.729 225.188C260.069 224.288 261.401 222.146 261.401 220.022V219.14H260.249ZM260.573 219.14V220.022C260.573 222.182 261.635 224.414 263.975 225.332L264.605 224.198C262.661 223.406 261.689 221.66 261.689 220.022V219.14H260.573ZM266.261 219.14V220.022C266.261 221.426 265.271 223.316 263.345 224.198L263.975 225.332C266.297 224.342 267.377 221.93 267.377 220.022V219.14H266.261ZM266.567 219.14V220.022C266.567 222.272 267.863 224.324 270.239 225.188L270.995 224.072C268.925 223.37 267.719 221.696 267.719 220.022V219.14H266.567ZM268.025 209.15V218.438H269.537V209.15H268.025ZM260.807 210.086C258.341 210.086 256.559 211.634 256.559 213.884C256.559 216.134 258.341 217.664 260.807 217.664C263.273 217.664 265.037 216.134 265.037 213.884C265.037 211.634 263.273 210.086 260.807 210.086ZM260.807 211.328C262.427 211.328 263.597 212.372 263.597 213.884C263.597 215.396 262.427 216.422 260.807 216.422C259.187 216.422 258.017 215.396 258.017 213.884C258.017 212.372 259.187 211.328 260.807 211.328ZM274.737 214.01V215.234H285.789V214.01H274.737ZM272.739 217.412V218.636H287.499V217.412H272.739ZM274.737 209.726V214.622H276.213V209.726H274.737ZM274.629 223.784V225.008H285.879V223.784H274.629ZM274.629 220.256V224.108H276.105V220.256H274.629ZM300.685 209.492C297.157 209.492 294.961 210.644 294.961 212.57C294.961 214.496 297.157 215.63 300.685 215.63C304.195 215.63 306.409 214.496 306.409 212.57C306.409 210.644 304.195 209.492 300.685 209.492ZM300.685 210.68C303.259 210.68 304.879 211.364 304.879 212.57C304.879 213.758 303.259 214.46 300.685 214.46C298.093 214.46 296.491 213.758 296.491 212.57C296.491 211.364 298.093 210.68 300.685 210.68ZM295.123 219.824V225.188H306.229V219.824H295.123ZM304.771 221.03V223.982H296.599V221.03H304.771ZM293.323 217.034V218.24H308.029V217.034H293.323ZM314.13 209.906V211.49C314.13 213.92 312.492 216.17 310.026 217.07L310.782 218.258C313.536 217.214 315.372 214.568 315.372 211.49V209.906H314.13ZM314.4 209.906V211.49C314.4 214.478 316.236 216.962 318.954 217.952L319.71 216.782C317.298 215.936 315.624 213.83 315.624 211.49V209.906H314.4ZM312.366 219.752V220.976H321.726V225.404H323.238V219.752H312.366ZM321.726 209.132V218.924H323.238V209.132H321.726ZM333.803 209.402C330.203 209.402 328.079 210.41 328.079 212.228C328.079 214.046 330.203 215.054 333.803 215.054C337.385 215.054 339.527 214.046 339.527 212.228C339.527 210.41 337.385 209.402 333.803 209.402ZM333.803 210.536C336.449 210.536 337.979 211.148 337.979 212.228C337.979 213.308 336.449 213.92 333.803 213.92C331.139 213.92 329.609 213.308 329.609 212.228C329.609 211.148 331.139 210.536 333.803 210.536ZM326.441 216.134V217.34H341.147V216.134H326.441ZM328.223 218.726V219.878H337.799V221.318H328.259V224.378H329.735V222.398H339.275V218.726H328.223ZM328.259 224.054V225.224H339.761V224.054H328.259ZM349.563 219.644V220.832H358.923V225.422H360.417V219.644H349.563ZM358.923 209.132V218.726H360.417V209.132H358.923ZM354.927 213.2V214.442H359.373V213.2H354.927ZM347.781 210.356V217.628H355.215V210.356H347.781ZM353.739 211.544V216.44H349.239V211.544H353.739ZM370.945 210.158C367.561 210.158 365.023 211.958 365.023 214.658C365.023 217.376 367.561 219.158 370.945 219.158C374.329 219.158 376.849 217.376 376.849 214.658C376.849 211.958 374.329 210.158 370.945 210.158ZM370.945 211.382C373.519 211.382 375.427 212.696 375.427 214.658C375.427 216.602 373.519 217.934 370.945 217.934C368.371 217.934 366.463 216.602 366.463 214.658C366.463 212.696 368.371 211.382 370.945 211.382ZM363.601 222.002V223.262H378.343V222.002H363.601ZM387.954 211.994V213.218H392.508V211.994H387.954ZM387.954 215.468V216.71H392.544V215.468H387.954ZM380.898 210.536V218.168H388.332V210.536H380.898ZM386.856 211.742V216.962H382.356V211.742H386.856ZM392.04 209.15V221.03H393.534V209.15H392.04ZM383.076 223.82V225.044H393.93V223.82H383.076ZM383.076 219.95V224.378H384.57V219.95H383.076ZM404.836 214.64V215.864H409.372V214.64H404.836ZM400.912 210.536V213.434C400.912 216.458 399.076 219.59 396.682 220.778L397.636 221.966C400.21 220.58 402.136 217.088 402.136 213.434V210.536H400.912ZM401.2 210.536V213.434C401.2 216.998 403.09 220.346 405.718 221.678L406.6 220.472C404.242 219.356 402.406 216.404 402.406 213.434V210.536H401.2ZM408.634 209.114V225.422H410.11V209.114H408.634ZM423.908 219.482V225.422H425.384V219.482H423.908ZM417.302 218.96V220.202H432.008V218.96H417.302ZM423.89 211.922V212.336C423.89 214.37 421.154 216.152 418.22 216.548L418.742 217.736C422.162 217.214 425.204 215.144 425.204 212.336V211.922H423.89ZM424.088 211.922V212.336C424.088 215.108 427.112 217.232 430.514 217.736L431.054 216.548C428.138 216.152 425.384 214.352 425.384 212.336V211.922H424.088ZM418.724 211.13V212.354H430.586V211.13H418.724ZM423.908 209.132V211.562H425.384V209.132H423.908ZM441.853 213.326V214.55H446.281V213.326H441.853ZM436.381 219.644V220.832H445.741V225.422H447.235V219.644H436.381ZM445.741 209.132V218.726H447.235V209.132H445.741ZM438.289 210.032C435.877 210.032 434.095 211.652 434.095 213.956C434.095 216.26 435.877 217.862 438.289 217.862C440.683 217.862 442.483 216.26 442.483 213.956C442.483 211.652 440.683 210.032 438.289 210.032ZM438.289 211.31C439.855 211.31 441.043 212.408 441.043 213.956C441.043 215.504 439.855 216.584 438.289 216.584C436.705 216.584 435.535 215.504 435.535 213.956C435.535 212.408 436.705 211.31 438.289 211.31ZM452.274 216.728V217.952H463.452V216.728H452.274ZM450.42 222.11V223.37H465.162V222.11H450.42ZM457.008 217.25V222.614H458.502V217.25H457.008ZM452.274 210.428V217.268H453.768V211.652H463.29V210.428H452.274ZM482.47 209.132V217.772H483.964V209.132H482.47ZM482.992 212.642V213.884H486.034V212.642H482.992ZM473.38 209.816V210.878C473.38 212.444 472.678 214.676 470.842 215.72L471.652 216.782C473.74 215.594 474.478 212.93 474.478 210.878V209.816H473.38ZM473.722 209.816V210.878C473.722 212.75 474.208 215.648 476.332 216.944L477.034 215.828C475.252 214.64 474.802 212.318 474.802 210.878V209.816H473.722ZM477.844 209.816V210.896C477.844 212.408 477.412 214.676 475.63 215.846L476.332 216.962C478.438 215.702 478.942 212.858 478.942 210.896V209.816H477.844ZM478.168 209.816V210.878C478.168 213.128 478.888 215.648 480.976 216.782L481.786 215.72C479.95 214.73 479.266 212.642 479.266 210.878V209.816H478.168ZM473.146 218.744V219.896H484.612V218.744H473.146ZM478.888 220.688C475.9 220.688 474.154 221.516 474.154 223.028C474.154 224.54 475.9 225.368 478.888 225.368C481.894 225.368 483.64 224.54 483.64 223.028C483.64 221.516 481.894 220.688 478.888 220.688ZM478.888 221.768C480.994 221.768 482.164 222.218 482.164 223.028C482.164 223.838 480.994 224.288 478.888 224.288C476.782 224.288 475.612 223.838 475.612 223.028C475.612 222.218 476.782 221.768 478.888 221.768ZM478.15 217.142V219.464H479.644V217.142H478.15ZM489.11 210.752V211.994H499.586V210.752H489.11ZM487.562 221.894V223.136H502.268V221.894H487.562ZM493.268 216.08V222.506H494.762V216.08H493.268ZM499.028 210.752V212.372C499.028 214.316 499.028 216.602 498.416 219.716L499.91 219.914C500.504 216.62 500.504 214.388 500.504 212.372V210.752H499.028ZM505.561 220.022H506.677L506.911 212.408L506.947 210.518H505.291L505.327 212.408L505.561 220.022ZM506.101 224.252C506.767 224.252 507.307 223.73 507.307 222.992C507.307 222.236 506.767 221.732 506.101 221.732C505.453 221.732 504.931 222.236 504.931 222.992C504.931 223.73 505.453 224.252 506.101 224.252ZM10.6778 237.888C8.26577 237.888 6.53777 239.238 6.53777 241.236C6.53777 243.216 8.26577 244.602 10.6778 244.602C13.1078 244.602 14.8358 243.216 14.8358 241.236C14.8358 239.238 13.1078 237.888 10.6778 237.888ZM10.6778 239.13C12.2618 239.13 13.3958 239.994 13.3958 241.236C13.3958 242.496 12.2618 243.342 10.6778 243.342C9.09377 243.342 7.95977 242.496 7.95977 241.236C7.95977 239.994 9.09377 239.13 10.6778 239.13ZM10.0118 246.402V252.9H11.5058V246.402H10.0118ZM17.2118 237.132V253.422H18.6878V237.132H17.2118ZM5.52977 247.212C8.49977 247.212 12.4958 247.158 16.1678 246.492L16.0598 245.376C12.4778 245.916 8.35577 245.952 5.33177 245.952L5.52977 247.212ZM25.3284 238.14V240.318C25.3284 242.154 24.0504 244.26 21.9084 245.196L22.7184 246.366C25.1124 245.304 26.5164 242.748 26.5164 240.318V238.14H25.3284ZM25.5624 238.14V240.318C25.5624 242.712 26.9124 244.962 29.2524 245.898L30.0624 244.764C27.9744 243.954 26.7504 242.118 26.7504 240.318V238.14H25.5624ZM34.2024 237.15V247.176H35.6244V237.15H34.2024ZM31.6104 241.488V242.712H34.6884V241.488H31.6104ZM30.7104 237.456V246.654H32.1324V237.456H30.7104ZM30.2784 247.536C26.9124 247.536 24.8604 248.616 24.8604 250.47C24.8604 252.306 26.9124 253.368 30.2784 253.368C33.6264 253.368 35.7144 252.306 35.7144 250.47C35.7144 248.616 33.6264 247.536 30.2784 247.536ZM30.2784 248.706C32.7264 248.706 34.2204 249.354 34.2204 250.47C34.2204 251.568 32.7264 252.216 30.2784 252.216C27.8304 252.216 26.3184 251.568 26.3184 250.47C26.3184 249.354 27.8304 248.706 30.2784 248.706ZM42.625 238.788V240.102C42.625 242.406 40.951 244.566 38.521 245.43L39.295 246.618C42.013 245.61 43.849 243.072 43.849 240.102V238.788H42.625ZM42.913 238.788V240.102C42.913 242.82 44.659 245.268 47.305 246.24L48.061 245.052C45.703 244.224 44.119 242.19 44.119 240.102V238.788H42.913ZM47.179 241.362V242.604H50.797V241.362H47.179ZM38.989 238.248V239.454H47.683V238.248H38.989ZM41.005 247.752V248.976H50.365V253.404H51.859V247.752H41.005ZM50.365 237.132V246.87H51.859V237.132H50.365ZM62.3876 238.158C59.0036 238.158 56.4656 239.958 56.4656 242.658C56.4656 245.376 59.0036 247.158 62.3876 247.158C65.7716 247.158 68.2916 245.376 68.2916 242.658C68.2916 239.958 65.7716 238.158 62.3876 238.158ZM62.3876 239.382C64.9616 239.382 66.8696 240.696 66.8696 242.658C66.8696 244.602 64.9616 245.934 62.3876 245.934C59.8136 245.934 57.9056 244.602 57.9056 242.658C57.9056 240.696 59.8136 239.382 62.3876 239.382ZM55.0436 250.002V251.262H69.7856V250.002H55.0436ZM71.6021 250.164V251.406H86.3441V250.164H71.6021ZM78.1901 246.672V250.686H79.6841V246.672H78.1901ZM73.3841 238.338V239.544H83.0501V242.064H73.4381V246.528H74.9141V243.27H84.5261V238.338H73.3841ZM73.4381 245.898V247.122H84.9041V245.898H73.4381ZM90.0147 244.728V245.952H101.193V244.728H90.0147ZM88.1607 250.11V251.37H102.903V250.11H88.1607ZM94.7487 245.25V250.614H96.2427V245.25H94.7487ZM90.0147 238.428V245.268H91.5087V239.652H101.031V238.428H90.0147ZM109.591 238.176V245.25H117.169V238.176H109.591ZM115.729 239.364V244.044H111.031V239.364H115.729ZM120.571 237.15V246.438H122.083V237.15H120.571ZM111.571 247.374V252.63H113.065V248.598H122.191V247.374H111.571ZM111.571 251.982V253.188H122.515V251.982H111.571ZM132.647 237.492C129.119 237.492 126.923 238.644 126.923 240.57C126.923 242.496 129.119 243.63 132.647 243.63C136.157 243.63 138.371 242.496 138.371 240.57C138.371 238.644 136.157 237.492 132.647 237.492ZM132.647 238.68C135.221 238.68 136.841 239.364 136.841 240.57C136.841 241.758 135.221 242.46 132.647 242.46C130.055 242.46 128.453 241.758 128.453 240.57C128.453 239.364 130.055 238.68 132.647 238.68ZM127.085 247.824V253.188H138.191V247.824H127.085ZM136.733 249.03V251.982H128.561V249.03H136.733ZM125.285 245.034V246.24H139.991V245.034H125.285ZM153.67 237.114V253.422H155.164V237.114H153.67ZM146.578 238.374C144.184 238.374 142.456 240.588 142.456 244.044C142.456 247.518 144.184 249.732 146.578 249.732C148.99 249.732 150.718 247.518 150.718 244.044C150.718 240.588 148.99 238.374 146.578 238.374ZM146.578 239.724C148.18 239.724 149.278 241.416 149.278 244.044C149.278 246.69 148.18 248.418 146.578 248.418C144.994 248.418 143.878 246.69 143.878 244.044C143.878 241.416 144.994 239.724 146.578 239.724ZM173.444 237.114V253.404H174.956V237.114H173.444ZM174.542 243.72V244.962H177.548V243.72H174.542ZM169.286 238.878V239.112C169.286 243.414 167.036 246.888 162.536 249.174L163.364 250.326C168.62 247.68 170.744 243.504 170.744 238.878H169.286ZM163.292 238.878V240.102H170.06V238.878H163.292ZM180.552 238.752V239.994H191.028V238.752H180.552ZM179.004 249.894V251.136H193.71V249.894H179.004ZM184.71 244.08V250.506H186.204V244.08H184.71ZM190.47 238.752V240.372C190.47 242.316 190.47 244.602 189.858 247.716L191.352 247.914C191.946 244.62 191.946 242.388 191.946 240.372V238.752H190.47ZM197.003 248.022H198.119L198.353 240.408L198.389 238.518H196.733L196.769 240.408L197.003 248.022ZM197.543 252.252C198.209 252.252 198.749 251.73 198.749 250.992C198.749 250.236 198.209 249.732 197.543 249.732C196.895 249.732 196.373 250.236 196.373 250.992C196.373 251.73 196.895 252.252 197.543 252.252ZM209.691 238.536V241.452C209.691 244.53 207.729 247.644 205.317 248.796L206.235 250.02C208.899 248.67 210.915 245.196 210.915 241.452V238.536H209.691ZM209.943 238.536V241.452C209.943 245.07 211.977 248.418 214.623 249.714L215.523 248.526C213.111 247.41 211.167 244.422 211.167 241.452V238.536H209.943ZM217.215 237.114V253.422H218.709V237.114H217.215ZM223.081 238.932V240.156H227.437V238.932H223.081ZM221.947 249.732V250.974H236.653V249.732H221.947ZM226.969 238.932V239.58C226.969 241.02 226.969 243.756 225.835 247.752L227.347 247.986C228.445 243.666 228.445 240.984 228.445 239.58V238.932H226.969ZM229.597 238.932V240.156H233.989V238.932H229.597ZM233.521 238.932V240.156C233.521 241.92 233.521 244.35 232.783 247.806L234.277 247.986C234.997 244.332 234.997 241.938 234.997 240.156V238.932H233.521ZM250.404 237.15V246.096H251.898V237.15H250.404ZM247.38 240.516V241.74H250.89V240.516H247.38ZM241.314 246.87V253.188H251.898V246.87H250.422V248.796H242.79V246.87H241.314ZM242.79 249.984H250.422V251.964H242.79V249.984ZM239.19 244.422V245.664H240.432C243.24 245.664 245.292 245.592 247.83 245.196L247.704 243.954C245.238 244.368 243.186 244.422 240.432 244.422H239.19ZM239.154 237.798V239.022H244.896V241.074H239.19V245.43H240.666V242.226H246.372V237.798H239.154ZM255.083 245.34V246.564H269.789V245.34H255.083ZM256.937 242.334V243.576H268.097V242.334H256.937ZM256.937 237.834V242.748H258.431V239.04H267.953V237.834H256.937ZM256.955 251.802V253.044H268.241V251.802H256.955ZM256.955 248.274V252.126H258.449V248.274H256.955ZM286.791 237.114V249.102H288.285V237.114H286.791ZM287.817 242.064V243.306H290.697V242.064H287.817ZM278.151 251.82V253.044H289.023V251.82H278.151ZM278.151 247.878V252.306H279.645V247.878H278.151ZM280.203 238.266C277.773 238.266 275.955 239.94 275.955 242.28C275.955 244.638 277.773 246.294 280.203 246.294C282.633 246.294 284.451 244.638 284.451 242.28C284.451 239.94 282.633 238.266 280.203 238.266ZM280.203 239.58C281.787 239.58 282.993 240.696 282.993 242.28C282.993 243.882 281.787 244.98 280.203 244.98C278.619 244.98 277.413 243.882 277.413 242.28C277.413 240.696 278.619 239.58 280.203 239.58ZM296.509 238.536V241.452C296.509 244.53 294.547 247.644 292.135 248.796L293.053 250.02C295.717 248.67 297.733 245.196 297.733 241.452V238.536H296.509ZM296.761 238.536V241.452C296.761 245.07 298.795 248.418 301.441 249.714L302.341 248.526C299.929 247.41 297.985 244.422 297.985 241.452V238.536H296.761ZM304.033 237.114V253.422H305.527V237.114H304.033ZM309.9 238.932V240.156H314.256V238.932H309.9ZM308.766 249.732V250.974H323.472V249.732H308.766ZM313.788 238.932V239.58C313.788 241.02 313.788 243.756 312.654 247.752L314.166 247.986C315.264 243.666 315.264 240.984 315.264 239.58V238.932H313.788ZM316.416 238.932V240.156H320.808V238.932H316.416ZM320.34 238.932V240.156C320.34 241.92 320.34 244.35 319.602 247.806L321.096 247.986C321.816 244.332 321.816 241.938 321.816 240.156V238.932H320.34ZM337.222 237.15V246.096H338.716V237.15H337.222ZM334.198 240.516V241.74H337.708V240.516H334.198ZM328.132 246.87V253.188H338.716V246.87H337.24V248.796H329.608V246.87H328.132ZM329.608 249.984H337.24V251.964H329.608V249.984ZM326.008 244.422V245.664H327.25C330.058 245.664 332.11 245.592 334.648 245.196L334.522 243.954C332.056 244.368 330.004 244.422 327.25 244.422H326.008ZM325.972 237.798V239.022H331.714V241.074H326.008V245.43H327.484V242.226H333.19V237.798H325.972ZM341.901 245.34V246.564H356.607V245.34H341.901ZM343.755 242.334V243.576H354.915V242.334H343.755ZM343.755 237.834V242.748H345.249V239.04H354.771V237.834H343.755ZM343.773 251.802V253.044H355.059V251.802H343.773ZM343.773 248.274V252.126H345.267V248.274H343.773ZM373.609 237.132V246.33H375.103V237.132H373.609ZM374.707 240.858V242.1H377.515V240.858H374.707ZM364.843 247.212V253.188H375.103V247.212H364.843ZM373.645 248.418V251.964H366.319V248.418H373.645ZM363.259 237.942V244.458H364.753V237.942H363.259ZM363.259 243.846V245.106H364.537C366.967 245.106 369.397 244.944 372.151 244.368L371.971 243.144C369.307 243.684 366.877 243.846 364.537 243.846H363.259ZM384.318 238.302C381.78 238.302 379.944 239.868 379.944 242.136C379.944 244.422 381.78 245.988 384.318 245.988C386.856 245.988 388.674 244.422 388.674 242.136C388.674 239.868 386.856 238.302 384.318 238.302ZM384.318 239.598C385.992 239.598 387.216 240.624 387.216 242.136C387.216 243.648 385.992 244.692 384.318 244.692C382.626 244.692 381.402 243.648 381.402 242.136C381.402 240.624 382.626 239.598 384.318 239.598ZM390.798 237.114V253.422H392.292V237.114H390.798ZM379.332 249.858C382.23 249.858 386.208 249.84 389.862 249.138L389.736 248.04C386.19 248.598 382.086 248.616 379.116 248.616L379.332 249.858ZM401.626 242.064V243.252H412.678V242.064H401.626ZM401.626 237.744V242.55H403.102V237.744H401.626ZM399.628 245.16V246.384H414.334V245.16H399.628ZM406.36 245.952V249.732H407.836V245.952H406.36ZM401.5 251.82V253.044H412.768V251.82H401.5ZM401.5 248.292V252.396H402.976V248.292H401.5ZM428.012 237.132V253.404H429.506V237.132H428.012ZM420.686 241.002V242.388C420.686 245.232 418.886 248.004 416.474 249.12L417.32 250.272C419.93 249.012 421.892 245.862 421.892 242.388V241.002H420.686ZM420.974 241.002V242.388C420.974 245.754 422.972 248.796 425.6 249.984L426.446 248.814C424.016 247.752 422.162 245.106 422.162 242.388V241.002H420.974ZM416.924 239.958V241.164H425.888V239.958H416.924ZM420.686 237.42V240.624H422.18V237.42H420.686ZM438.714 237.384V242.748H449.55V237.384H448.056V238.896H440.19V237.384H438.714ZM440.19 240.048H448.056V241.596H440.19V240.048ZM436.752 244.314V245.52H451.458V244.314H436.752ZM443.358 242.208V244.692H444.834V242.208H443.358ZM438.534 246.87V248.004H448.11V249.408H438.57V252.504H440.046V250.488H449.586V246.87H438.534ZM438.57 252.072V253.224H450.072V252.072H438.57ZM469.198 237.132V245.556H470.71V237.132H469.198ZM460.09 246.348V247.536H469.216V249.156H460.144V252.72H461.602V250.272H470.71V246.348H460.09ZM460.144 252.036V253.224H471.304V252.036H460.144ZM458.074 238.23V239.418H466.804V238.23H458.074ZM457.786 245.016C460.648 244.998 464.428 244.89 467.668 244.404L467.578 243.306C464.41 243.702 460.522 243.774 457.624 243.774L457.786 245.016ZM459.676 238.77V244.314H461.116V238.77H459.676ZM463.744 238.77V244.314H465.202V238.77H463.744ZM477.513 245.502V250.38H478.989V245.502H477.513ZM483.525 245.502V250.38H485.019V245.502H483.525ZM473.913 250.092V251.334H488.655V250.092H473.913ZM481.257 238.158C477.801 238.158 475.335 239.796 475.335 242.352C475.335 244.89 477.801 246.528 481.257 246.528C484.695 246.528 487.161 244.89 487.161 242.352C487.161 239.796 484.695 238.158 481.257 238.158ZM481.257 239.346C483.867 239.346 485.721 240.534 485.721 242.352C485.721 244.152 483.867 245.34 481.257 245.34C478.647 245.34 476.775 244.152 476.775 242.352C476.775 240.534 478.647 239.346 481.257 239.346ZM496.351 246.672V253.188H501.985V246.672H500.599V248.706H497.755V246.672H496.351ZM497.755 249.822H500.599V252.018H497.755V249.822ZM505.135 246.582V247.932C505.135 249.588 504.127 251.37 502.165 252.198L502.921 253.332C505.171 252.378 506.287 250.146 506.287 247.932V246.582H505.135ZM505.441 246.582V247.932C505.441 250.236 506.539 252.396 508.807 253.332L509.563 252.198C507.601 251.442 506.593 249.678 506.593 247.932V246.582H505.441ZM502.669 240.948V242.19H507.043V240.948H502.669ZM498.925 237.852C496.495 237.852 494.731 239.364 494.731 241.596C494.731 243.81 496.495 245.34 498.925 245.34C501.355 245.34 503.119 243.81 503.119 241.596C503.119 239.364 501.355 237.852 498.925 237.852ZM498.925 239.094C500.527 239.094 501.679 240.12 501.679 241.596C501.679 243.054 500.527 244.098 498.925 244.098C497.323 244.098 496.171 243.054 496.171 241.596C496.171 240.12 497.323 239.094 498.925 239.094ZM506.377 237.132V245.754H507.871V237.132H506.377ZM512.603 238.752V239.994H523.079V238.752H512.603ZM511.055 249.894V251.136H525.761V249.894H511.055ZM516.761 244.08V250.506H518.255V244.08H516.761ZM522.521 238.752V240.372C522.521 242.316 522.521 244.602 521.909 247.716L523.403 247.914C523.997 244.62 523.997 242.388 523.997 240.372V238.752H522.521ZM529.054 248.022H530.17L530.404 240.408L530.44 238.518H528.784L528.82 240.408L529.054 248.022ZM529.594 252.252C530.26 252.252 530.8 251.73 530.8 250.992C530.8 250.236 530.26 249.732 529.594 249.732C528.946 249.732 528.424 250.236 528.424 250.992C528.424 251.73 528.946 252.252 529.594 252.252ZM6.65055 273.718V274.942H21.3926V273.718H6.65055ZM13.3826 274.33V278.074H14.8766V274.33H13.3826ZM8.52255 279.82V281.044H19.7546V279.82H8.52255ZM8.52255 276.634V280.288H9.99855V276.634H8.52255ZM8.61255 265.636V272.152H19.4486V265.636H17.9546V267.706H10.0886V265.636H8.61255ZM10.0886 268.876H17.9546V270.946H10.0886V268.876ZM28.5371 265.888C26.1251 265.888 24.3971 267.238 24.3971 269.236C24.3971 271.216 26.1251 272.602 28.5371 272.602C30.9671 272.602 32.6951 271.216 32.6951 269.236C32.6951 267.238 30.9671 265.888 28.5371 265.888ZM28.5371 267.13C30.1211 267.13 31.2551 267.994 31.2551 269.236C31.2551 270.496 30.1211 271.342 28.5371 271.342C26.9531 271.342 25.8191 270.496 25.8191 269.236C25.8191 267.994 26.9531 267.13 28.5371 267.13ZM27.8711 274.402V280.9H29.3651V274.402H27.8711ZM35.0711 265.132V281.422H36.5471V265.132H35.0711ZM23.3891 275.212C26.3591 275.212 30.3551 275.158 34.0271 274.492L33.9191 273.376C30.3371 273.916 26.2151 273.952 23.1911 273.952L23.3891 275.212ZM51.6297 265.132V281.404H53.1237V265.132H51.6297ZM46.8597 266.878V267.13C46.8597 271.45 44.6817 274.906 39.9837 277.174L40.7757 278.38C46.2117 275.716 48.3357 271.594 48.3357 266.878H46.8597ZM40.7217 266.878V268.102H47.5077V266.878H40.7217ZM72.7177 265.132V281.404H74.1577V265.132H72.7177ZM69.9817 271.756V272.98H73.1137V271.756H69.9817ZM69.0277 265.492V280.576H70.4317V265.492H69.0277ZM61.1437 267.094V276.49H62.6377V267.094H61.1437ZM61.1437 275.896V277.192H62.1877C63.9337 277.192 65.8057 277.102 68.0197 276.67L67.8577 275.374C65.7337 275.788 63.8617 275.896 62.1877 275.896H61.1437ZM78.4763 266.752V267.994H88.9523V266.752H78.4763ZM76.9283 277.894V279.136H91.6343V277.894H76.9283ZM82.6343 272.08V278.506H84.1283V272.08H82.6343ZM88.3943 266.752V268.372C88.3943 270.316 88.3943 272.602 87.7823 275.716L89.2763 275.914C89.8703 272.62 89.8703 270.388 89.8703 268.372V266.752H88.3943ZM109.338 265.15V274.168H110.85V265.15H109.338ZM101.742 265.726V267.31C101.742 269.65 100.05 271.81 97.6023 272.674L98.3583 273.844C101.112 272.854 102.984 270.316 102.984 267.31V265.726H101.742ZM102.012 265.726V267.31C102.012 270.226 103.884 272.62 106.62 273.556L107.358 272.368C104.946 271.576 103.236 269.578 103.236 267.31V265.726H102.012ZM100.086 275.14V276.364H110.94V275.14H100.086ZM99.9243 279.982V281.188H111.12V279.982H99.9243ZM102.318 275.662V280.684H103.776V275.662H102.318ZM107.25 275.662V280.684H108.726V275.662H107.25ZM114.053 273.682V274.906H128.759V273.682H114.053ZM115.961 279.82V281.044H127.139V279.82H115.961ZM115.961 276.328V280.198H117.455V276.328H115.961ZM121.415 265.672C117.923 265.672 115.691 266.896 115.691 268.93C115.691 270.946 117.923 272.17 121.415 272.17C124.889 272.17 127.139 270.946 127.139 268.93C127.139 266.896 124.889 265.672 121.415 265.672ZM121.415 266.896C123.971 266.896 125.609 267.652 125.609 268.93C125.609 270.208 123.971 270.964 121.415 270.964C118.859 270.964 117.221 270.208 117.221 268.93C117.221 267.652 118.859 266.896 121.415 266.896ZM142.995 265.132V281.404H144.435V265.132H142.995ZM140.241 271.648V272.89H143.373V271.648H140.241ZM139.305 265.492V280.576H140.709V265.492H139.305ZM131.205 276.148V277.39H132.267C134.715 277.39 136.353 277.318 138.297 276.904L138.153 275.662C136.263 276.058 134.643 276.148 132.267 276.148H131.205ZM131.205 267.112V276.706H132.681V268.336H137.253V267.112H131.205ZM147.188 278.164V279.406H161.93V278.164H147.188ZM153.776 274.672V278.686H155.27V274.672H153.776ZM148.97 266.338V267.544H158.636V270.064H149.024V274.528H150.5V271.27H160.112V266.338H148.97ZM149.024 273.898V275.122H160.49V273.898H149.024ZM169.518 265.78V266.986H179.994V265.78H169.518ZM167.772 271.612V272.818H182.46V271.612H167.772ZM173.802 268.804V272.17H175.278V268.804H173.802ZM179.13 265.78V266.842C179.13 267.85 179.13 269.002 178.806 270.568L180.282 270.694C180.606 269.11 180.606 267.886 180.606 266.842V265.78H179.13ZM169.5 274.294V275.5H179.184V277.12H169.536V280.432H171.03V278.218H180.66V274.294H169.5ZM169.536 280.018V281.224H181.074V280.018H169.536ZM195.347 265.114V281.422H196.841V265.114H195.347ZM196.481 271.594V272.854H199.505V271.594H196.481ZM184.979 276.256V277.498H186.275C189.389 277.498 191.549 277.372 194.087 276.922L193.925 275.68C191.459 276.148 189.335 276.256 186.275 276.256H184.979ZM184.943 266.644V267.868H190.829V271.252H184.979V276.76H186.455V272.476H192.305V266.644H184.943ZM209.007 270.64V271.864H213.543V270.64H209.007ZM205.083 266.536V269.434C205.083 272.458 203.247 275.59 200.853 276.778L201.807 277.966C204.381 276.58 206.307 273.088 206.307 269.434V266.536H205.083ZM205.371 266.536V269.434C205.371 272.998 207.261 276.346 209.889 277.678L210.771 276.472C208.413 275.356 206.577 272.404 206.577 269.434V266.536H205.371ZM212.805 265.114V281.422H214.281V265.114H212.805ZM233.839 265.132V281.404H235.279V265.132H233.839ZM231.085 271.648V272.89H234.217V271.648H231.085ZM230.149 265.492V280.576H231.553V265.492H230.149ZM222.049 276.148V277.39H223.111C225.559 277.39 227.197 277.318 229.141 276.904L228.997 275.662C227.107 276.058 225.487 276.148 223.111 276.148H222.049ZM222.049 267.112V276.706H223.525V268.336H228.097V267.112H222.049ZM245.358 268.75V269.992H250.272V268.75H245.358ZM245.358 273.898V275.14H250.272V273.898H245.358ZM242.37 266.374C239.994 266.374 238.32 268.588 238.32 272.044C238.32 275.518 239.994 277.732 242.37 277.732C244.728 277.732 246.42 275.518 246.42 272.044C246.42 268.588 244.728 266.374 242.37 266.374ZM242.37 267.724C243.936 267.724 245.016 269.416 245.016 272.044C245.016 274.69 243.936 276.418 242.37 276.418C240.804 276.418 239.724 274.69 239.724 272.044C239.724 269.416 240.804 267.724 242.37 267.724ZM249.948 265.114V281.422H251.424V265.114H249.948ZM269.74 265.078V274.06H271.234V265.078H269.74ZM270.604 268.984V270.244H273.646V268.984H270.604ZM260.902 274.888V276.022H269.776V277.444H260.938V280.504H262.414V278.524H271.234V274.888H260.902ZM260.938 280.072V281.224H271.828V280.072H260.938ZM258.652 266.59V267.76H268.264V266.59H258.652ZM263.458 268.48C261.082 268.48 259.552 269.506 259.552 271.162C259.552 272.8 261.082 273.808 263.458 273.808C265.798 273.808 267.346 272.8 267.346 271.162C267.346 269.506 265.798 268.48 263.458 268.48ZM263.458 269.578C264.952 269.578 265.924 270.19 265.924 271.162C265.924 272.116 264.952 272.728 263.458 272.728C261.946 272.728 260.974 272.116 260.974 271.162C260.974 270.19 261.946 269.578 263.458 269.578ZM262.702 264.952V267.4H264.196V264.952H262.702ZM285.77 265.708V266.608C285.77 268.93 282.908 270.874 279.938 271.324L280.532 272.53C283.916 271.954 287.084 269.722 287.084 266.608V265.708H285.77ZM286.04 265.708V266.608C286.04 269.686 289.226 271.954 292.574 272.53L293.168 271.324C290.234 270.874 287.336 268.876 287.336 266.608V265.708H286.04ZM285.77 275.212V281.404H287.246V275.212H285.77ZM279.2 274.294V275.536H293.906V274.294H279.2ZM303.834 275.14V276.022C303.834 277.588 302.61 279.334 300.558 280.072L301.314 281.188C303.654 280.288 304.986 278.146 304.986 276.022V275.14H303.834ZM304.158 275.14V276.022C304.158 278.182 305.22 280.414 307.56 281.332L308.19 280.198C306.246 279.406 305.274 277.66 305.274 276.022V275.14H304.158ZM309.846 275.14V276.022C309.846 277.426 308.856 279.316 306.93 280.198L307.56 281.332C309.882 280.342 310.962 277.93 310.962 276.022V275.14H309.846ZM310.152 275.14V276.022C310.152 278.272 311.448 280.324 313.824 281.188L314.58 280.072C312.51 279.37 311.304 277.696 311.304 276.022V275.14H310.152ZM311.61 265.15V274.438H313.122V265.15H311.61ZM304.392 266.086C301.926 266.086 300.144 267.634 300.144 269.884C300.144 272.134 301.926 273.664 304.392 273.664C306.858 273.664 308.622 272.134 308.622 269.884C308.622 267.634 306.858 266.086 304.392 266.086ZM304.392 267.328C306.012 267.328 307.182 268.372 307.182 269.884C307.182 271.396 306.012 272.422 304.392 272.422C302.772 272.422 301.602 271.396 301.602 269.884C301.602 268.372 302.772 267.328 304.392 267.328ZM318.322 270.01V271.234H329.374V270.01H318.322ZM316.324 273.412V274.636H331.084V273.412H316.324ZM318.322 265.726V270.622H319.798V265.726H318.322ZM318.214 279.784V281.008H329.464V279.784H318.214ZM318.214 276.256V280.108H319.69V276.256H318.214ZM336.926 278.056V279.298H351.668V278.056H336.926ZM343.478 274.114V278.47H344.954V274.114H343.478ZM343.442 266.212V267.472C343.442 270.154 340.364 272.548 337.502 273.07L338.132 274.312C341.408 273.628 344.738 270.946 344.738 267.472V266.212H343.442ZM343.712 266.212V267.472C343.712 270.946 347.042 273.628 350.318 274.312L350.966 273.07C348.104 272.548 345.008 270.172 345.008 267.472V266.212H343.712ZM362.179 266.788V267.976H365.851V266.788H362.179ZM362.179 269.722V270.91H365.851V269.722H362.179ZM365.365 265.132V273.646H366.859V265.132H365.365ZM356.383 274.456V275.626H365.383V277.174H356.437V280.792H357.895V278.29H366.859V274.456H356.383ZM356.437 280.018V281.188H367.471V280.018H356.437ZM357.535 265.546V267.238C357.535 269.524 355.879 271.702 353.485 272.566L354.241 273.718C356.923 272.71 358.723 270.19 358.723 267.238V265.546H357.535ZM357.805 265.546V267.238C357.805 270.046 359.587 272.44 362.215 273.394L362.971 272.242C360.649 271.432 358.993 269.416 358.993 267.238V265.546H357.805ZM385.067 265.114V281.422H386.579V265.114H385.067ZM386.219 271.54V272.8H389.243V271.54H386.219ZM374.753 276.112V277.372H376.031C379.091 277.372 381.233 277.282 383.735 276.814L383.573 275.554C381.143 276.004 379.037 276.112 376.031 276.112H374.753ZM374.753 266.698V276.67H376.229V267.922H382.313V266.698H374.753ZM402.436 265.114V281.422H403.93V265.114H402.436ZM395.344 266.374C392.95 266.374 391.222 268.588 391.222 272.044C391.222 275.518 392.95 277.732 395.344 277.732C397.756 277.732 399.484 275.518 399.484 272.044C399.484 268.588 397.756 266.374 395.344 266.374ZM395.344 267.724C396.946 267.724 398.044 269.416 398.044 272.044C398.044 274.69 396.946 276.418 395.344 276.418C393.76 276.418 392.644 274.69 392.644 272.044C392.644 269.416 393.76 267.724 395.344 267.724ZM418.994 265.132V274.87H420.488V265.132H418.994ZM408.194 266.212V272.926H409.67V266.212H408.194ZM408.194 272.188V273.448H409.508C412.442 273.448 414.818 273.286 417.464 272.728L417.266 271.486C414.728 272.026 412.37 272.188 409.508 272.188H408.194ZM415.088 274.996C411.722 274.996 409.634 276.184 409.634 278.182C409.634 280.198 411.722 281.368 415.088 281.368C418.454 281.368 420.56 280.198 420.56 278.182C420.56 276.184 418.454 274.996 415.088 274.996ZM415.088 276.202C417.554 276.202 419.066 276.922 419.066 278.182C419.066 279.442 417.554 280.162 415.088 280.162C412.622 280.162 411.128 279.442 411.128 278.182C411.128 276.922 412.622 276.202 415.088 276.202ZM429.12 265.618V266.788H441.072V265.618H429.12ZM429.192 269.884V271.036H441V269.884H429.192ZM431.586 266.068V270.64H433.08V266.068H431.586ZM437.13 266.068V270.64H438.606V266.068H437.13ZM427.752 272.386V273.592H442.458V272.386H427.752ZM429.534 275.014V276.13H439.11V277.516H429.57V280.54H431.046V278.578H440.586V275.014H429.534ZM429.57 280.09V281.224H441.072V280.09H429.57ZM456.605 265.132V276.22H458.027V265.132H456.605ZM453.995 269.38V270.604H457.055V269.38H453.995ZM453.023 265.438V274.798H454.427V265.438H453.023ZM445.067 273.358V274.564H446.111C448.469 274.564 450.179 274.492 452.231 274.078L452.069 272.872C450.107 273.286 448.415 273.358 446.111 273.358H445.067ZM445.031 266.41V267.616H449.711V269.83H445.067V274.15H446.507V270.964H451.151V266.41H445.031ZM451.889 275.482V275.896C451.889 278.002 449.225 279.748 446.363 280.18L446.957 281.35C450.215 280.774 453.149 278.758 453.149 275.896V275.482H451.889ZM452.087 275.482V275.896C452.087 278.758 455.039 280.774 458.297 281.35L458.891 280.18C456.029 279.748 453.365 278.002 453.365 275.896V275.482H452.087ZM460.869 273.322V274.546H475.575V273.322H460.869ZM467.475 271.144V273.952H468.951V271.144H467.475ZM462.237 265.636V266.86H474.189V265.636H462.237ZM462.309 270.262V271.486H474.117V270.262H462.309ZM464.703 266.176V271.054H466.197V266.176H464.703ZM470.247 266.176V271.054H471.723V266.176H470.247ZM462.669 276.058V281.188H473.775V276.058H462.669ZM472.317 277.246V279.982H464.145V277.246H472.317ZM489.272 265.132V273.862H490.784V265.132H489.272ZM480.29 274.672V281.188H490.784V274.672H489.308V276.652H481.766V274.672H480.29ZM481.766 277.84H489.308V279.982H481.766V277.84ZM482.054 265.906C479.588 265.906 477.806 267.436 477.806 269.65C477.806 271.882 479.588 273.412 482.054 273.412C484.52 273.412 486.284 271.882 486.284 269.65C486.284 267.436 484.52 265.906 482.054 265.906ZM482.054 267.148C483.674 267.148 484.844 268.174 484.844 269.65C484.844 271.126 483.674 272.152 482.054 272.152C480.434 272.152 479.264 271.126 479.264 269.65C479.264 268.174 480.434 267.148 482.054 267.148ZM505.83 265.132V281.404H507.324V265.132H505.83ZM495.03 266.716V276.796H496.506V266.716H495.03ZM495.03 275.914V277.21H496.362C498.936 277.21 501.51 277.012 504.336 276.436L504.156 275.158C501.402 275.734 498.828 275.914 496.362 275.914H495.03ZM521.561 265.114V281.422H523.073V265.114H521.561ZM522.713 271.54V272.8H525.737V271.54H522.713ZM511.247 276.112V277.372H512.525C515.585 277.372 517.727 277.282 520.229 276.814L520.067 275.554C517.637 276.004 515.531 276.112 512.525 276.112H511.247ZM511.247 266.698V276.67H512.723V267.922H518.807V266.698H511.247ZM528.706 280.252C529.372 280.252 529.912 279.73 529.912 278.992C529.912 278.236 529.372 277.732 528.706 277.732C528.058 277.732 527.536 278.236 527.536 278.992C527.536 279.73 528.058 280.252 528.706 280.252Z" fill="white"/>
</svg>
