<svg width="133" height="24" viewBox="0 0 133 24" fill="none" xmlns="http://www.w3.org/2000/svg">
<g clip-path="url(#clip0_2_279)">
<path d="M13.4038 0.565613L16.4858 6.8442C16.6334 7.14341 16.917 7.35073 17.2451 7.39785L24.1379 8.40384C24.9652 8.52399 25.2933 9.54411 24.6957 10.1307L19.7083 15.017C19.4716 15.2502 19.3615 15.5848 19.4177 15.9122L20.5942 22.8128C20.7349 23.6397 19.8724 24.2711 19.1318 23.88L12.9679 20.6218C12.675 20.4663 12.3234 20.4663 12.0305 20.6218L5.86658 23.88C5.12832 24.2711 4.26351 23.6397 4.40413 22.8128L5.58065 15.9122C5.6369 15.5848 5.52909 15.2479 5.29004 15.017L0.305035 10.1307C-0.292603 9.54411 0.0378559 8.52399 0.86283 8.40384L7.75558 7.39785C8.0837 7.35073 8.36728 7.14341 8.51494 6.8442L11.5969 0.565613C11.9672 -0.185933 13.0335 -0.185933 13.4038 0.565613Z" fill="#FFE338"/>
<path d="M12.5008 12.0674V20.5087C12.3391 20.5087 12.1798 20.5488 12.0321 20.6242L5.86824 23.8824C5.12998 24.2735 4.26517 23.6421 4.40579 22.8152L5.58231 15.9146C5.60106 15.8016 5.60106 15.6885 5.58231 15.5777C5.64091 15.4552 5.67137 15.3893 5.67137 15.3893L12.4985 12.0674H12.5008Z" fill="#FFB81C"/>
<path d="M19.1338 23.8822L12.9676 20.6239C12.8199 20.5462 12.6606 20.5085 12.4988 20.5085V12.0671L19.326 15.389L19.4385 15.4668C19.3986 15.6105 19.3892 15.7613 19.415 15.9144L20.5916 22.815C20.7322 23.6419 19.8697 24.2733 19.1291 23.8822H19.1338Z" fill="#FFD31E"/>
<path d="M12.5012 20.5061C12.4824 19.8017 12.473 19.0996 12.459 18.3952L12.4355 16.2843C12.4262 15.5798 12.4285 14.8778 12.4238 14.1733L12.4191 12.0624C12.4191 12.0153 12.4566 11.9776 12.5012 11.9776C12.5152 11.9776 12.5269 11.98 12.5387 11.987L14.2425 12.8234C14.8097 13.1014 15.3792 13.3794 15.944 13.6668L17.6408 14.5173L19.3306 15.3843L17.6057 14.5903L15.8878 13.7799C15.3136 13.5113 14.7441 13.2357 14.1745 12.9624L12.4637 12.1378L12.5832 12.0624L12.5785 14.1733C12.5738 14.8778 12.5762 15.5798 12.5668 16.2843L12.5433 18.3952C12.5293 19.0996 12.5199 19.8017 12.5012 20.5061Z" fill="#FFE338"/>
<path d="M12.5015 12.0671L5.6744 15.3889C5.6744 15.3889 5.61346 15.3607 5.50097 15.3112C5.45175 15.2028 5.38144 15.1039 5.29472 15.019L0.305035 10.1305C-0.292603 9.54619 0.0378559 8.52607 0.86283 8.40356L7.75558 7.39521C7.83996 7.38343 7.92198 7.35988 7.99698 7.32925L8.27822 7.31982C8.3626 7.36223 12.4992 12.0671 12.4992 12.0671H12.5015Z" fill="#FFD20F"/>
<path d="M19.3283 15.3891C18.7494 15.1299 18.1776 14.8637 17.6034 14.5975L15.8854 13.7894L14.1746 12.9671C13.605 12.6915 13.0332 12.4206 12.466 12.1402C12.4262 12.119 12.4098 12.0695 12.4285 12.0295C12.4309 12.0224 12.4355 12.0153 12.4402 12.0106C13.1504 11.2237 13.8488 10.4298 14.5659 9.65233L15.637 8.48143L16.7198 7.31995L15.6933 8.53326L14.655 9.73479C13.966 10.5382 13.2582 11.3251 12.5598 12.1214L12.534 11.9918C13.1058 12.2627 13.6707 12.5454 14.2402 12.8258L15.9417 13.6645L17.6385 14.5174C18.201 14.8071 18.7658 15.0922 19.326 15.3867L19.3283 15.3891Z" fill="#FFB81C"/>
<path d="M5.67676 15.3889C6.25565 15.1298 6.8275 14.8636 7.4017 14.5973L9.11962 13.7892L10.8305 12.967C11.4 12.6914 11.9719 12.4204 12.539 12.1401C12.5789 12.1189 12.5953 12.0694 12.5765 12.0294C12.5742 12.0223 12.5695 12.0152 12.5648 12.0105C11.8547 11.2236 11.1563 10.4297 10.4391 9.65221L9.36805 8.4813L8.28527 7.31982L9.3118 8.53314L10.35 9.73467C11.0391 10.538 11.7469 11.3249 12.4453 12.1212L12.4711 11.9917C11.8992 12.2626 11.3344 12.5453 10.7649 12.8257L9.06337 13.6644L7.36655 14.5172C6.80407 14.807 6.23924 15.0921 5.6791 15.3866L5.67676 15.3889Z" fill="#FFE338"/>
<path d="M16.7202 7.31982C16.0429 8.13498 15.3515 8.936 14.6578 9.73702C14.3133 10.1399 13.9617 10.5333 13.6125 10.9315L12.5626 12.1236C12.5321 12.1589 12.4782 12.1613 12.443 12.1307L12.436 12.1236L11.386 10.9315C11.0368 10.5333 10.6829 10.1399 10.3408 9.73702L9.30251 8.53549C8.96033 8.13027 8.61581 7.72976 8.27832 7.31982C8.64393 7.70149 9.00252 8.09257 9.36344 8.47895L10.4368 9.64985C10.7954 10.0386 11.147 10.4367 11.5009 10.8278L12.5626 12.0105H12.436L13.4977 10.8278C13.8516 10.4344 14.2031 10.0386 14.5617 9.64985C15.2742 8.86768 15.9914 8.08786 16.7202 7.31982Z" fill="#FFF07D"/>
</g>
<g clip-path="url(#clip1_2_279)">
<path d="M40.4038 0.565613L43.4858 6.8442C43.6334 7.14341 43.917 7.35073 44.2451 7.39785L51.1379 8.40384C51.9652 8.52399 52.2933 9.54411 51.6957 10.1307L46.7083 15.017C46.4716 15.2502 46.3615 15.5848 46.4177 15.9122L47.5942 22.8128C47.7349 23.6397 46.8724 24.2711 46.1318 23.88L39.9679 20.6218C39.675 20.4663 39.3234 20.4663 39.0305 20.6218L32.8666 23.88C32.1283 24.2711 31.2635 23.6397 31.4041 22.8128L32.5807 15.9122C32.6369 15.5848 32.5291 15.2479 32.29 15.017L27.305 10.1307C26.7074 9.54411 27.0379 8.52399 27.8628 8.40384L34.7556 7.39785C35.0837 7.35073 35.3673 7.14341 35.5149 6.8442L38.5969 0.565613C38.9672 -0.185933 40.0335 -0.185933 40.4038 0.565613Z" fill="#FFE338"/>
<path d="M39.5008 12.0674V20.5087C39.3391 20.5087 39.1798 20.5488 39.0321 20.6242L32.8682 23.8824C32.13 24.2735 31.2652 23.6421 31.4058 22.8152L32.5823 15.9146C32.6011 15.8016 32.6011 15.6885 32.5823 15.5777C32.6409 15.4552 32.6714 15.3893 32.6714 15.3893L39.4985 12.0674H39.5008Z" fill="#FFB81C"/>
<path d="M46.1338 23.8822L39.9676 20.6239C39.8199 20.5462 39.6606 20.5085 39.4988 20.5085V12.0671L46.326 15.389L46.4385 15.4668C46.3986 15.6105 46.3892 15.7613 46.415 15.9144L47.5916 22.815C47.7322 23.6419 46.8697 24.2733 46.1291 23.8822H46.1338Z" fill="#FFD31E"/>
<path d="M39.5012 20.5061C39.4824 19.8017 39.473 19.0996 39.459 18.3952L39.4355 16.2843C39.4262 15.5798 39.4285 14.8778 39.4238 14.1733L39.4191 12.0624C39.4191 12.0153 39.4566 11.9776 39.5012 11.9776C39.5152 11.9776 39.5269 11.98 39.5387 11.987L41.2425 12.8234C41.8097 13.1014 42.3792 13.3794 42.944 13.6668L44.6408 14.5173L46.3306 15.3843L44.6057 14.5903L42.8878 13.7799C42.3136 13.5113 41.7441 13.2357 41.1745 12.9624L39.4637 12.1378L39.5832 12.0624L39.5785 14.1733C39.5738 14.8778 39.5762 15.5798 39.5668 16.2843L39.5433 18.3952C39.5293 19.0996 39.5199 19.8017 39.5012 20.5061Z" fill="#FFE338"/>
<path d="M39.5015 12.0671L32.6744 15.3889C32.6744 15.3889 32.6135 15.3607 32.501 15.3112C32.4517 15.2028 32.3814 15.1039 32.2947 15.019L27.305 10.1305C26.7074 9.54619 27.0379 8.52607 27.8628 8.40356L34.7556 7.39521C34.84 7.38343 34.922 7.35988 34.997 7.32925L35.2782 7.31982C35.3626 7.36223 39.4992 12.0671 39.4992 12.0671H39.5015Z" fill="#FFD20F"/>
<path d="M46.3283 15.3891C45.7494 15.1299 45.1776 14.8637 44.6034 14.5975L42.8854 13.7894L41.1746 12.9671C40.605 12.6915 40.0332 12.4206 39.466 12.1402C39.4262 12.119 39.4098 12.0695 39.4285 12.0295C39.4309 12.0224 39.4355 12.0153 39.4402 12.0106C40.1504 11.2237 40.8488 10.4298 41.5659 9.65233L42.637 8.48143L43.7198 7.31995L42.6933 8.53326L41.655 9.73479C40.966 10.5382 40.2582 11.3251 39.5598 12.1214L39.534 11.9918C40.1058 12.2627 40.6707 12.5454 41.2402 12.8258L42.9417 13.6645L44.6385 14.5174C45.201 14.8071 45.7658 15.0922 46.326 15.3867L46.3283 15.3891Z" fill="#FFB81C"/>
<path d="M32.6768 15.3889C33.2556 15.1298 33.8275 14.8636 34.4017 14.5973L36.1196 13.7892L37.8305 12.967C38.4 12.6914 38.9719 12.4204 39.539 12.1401C39.5789 12.1189 39.5953 12.0694 39.5765 12.0294C39.5742 12.0223 39.5695 12.0152 39.5648 12.0105C38.8547 11.2236 38.1563 10.4297 37.4391 9.65221L36.368 8.4813L35.2853 7.31982L36.3118 8.53314L37.35 9.73467C38.0391 10.538 38.7469 11.3249 39.4453 12.1212L39.4711 11.9917C38.8992 12.2626 38.3344 12.5453 37.7649 12.8257L36.0634 13.6644L34.3665 14.5172C33.8041 14.807 33.2392 15.0921 32.6791 15.3866L32.6768 15.3889Z" fill="#FFE338"/>
<path d="M43.7202 7.31982C43.0429 8.13498 42.3515 8.936 41.6578 9.73702C41.3133 10.1399 40.9617 10.5333 40.6125 10.9315L39.5626 12.1236C39.5321 12.1589 39.4782 12.1613 39.443 12.1307L39.436 12.1236L38.386 10.9315C38.0368 10.5333 37.6829 10.1399 37.3408 9.73702L36.3025 8.53549C35.9603 8.13027 35.6158 7.72976 35.2783 7.31982C35.6439 7.70149 36.0025 8.09257 36.3634 8.47895L37.4368 9.64985C37.7954 10.0386 38.147 10.4367 38.5009 10.8278L39.5626 12.0105H39.436L40.4977 10.8278C40.8516 10.4344 41.2031 10.0386 41.5617 9.64985C42.2742 8.86768 42.9914 8.08786 43.7202 7.31982Z" fill="#FFF07D"/>
</g>
<g clip-path="url(#clip2_2_279)">
<path d="M67.4038 0.565613L70.4858 6.8442C70.6334 7.14341 70.917 7.35073 71.2451 7.39785L78.1379 8.40384C78.9652 8.52399 79.2933 9.54411 78.6957 10.1307L73.7083 15.017C73.4716 15.2502 73.3615 15.5848 73.4177 15.9122L74.5942 22.8128C74.7349 23.6397 73.8724 24.2711 73.1318 23.88L66.9679 20.6218C66.675 20.4663 66.3234 20.4663 66.0305 20.6218L59.8666 23.88C59.1283 24.2711 58.2635 23.6397 58.4041 22.8128L59.5807 15.9122C59.6369 15.5848 59.5291 15.2479 59.29 15.017L54.305 10.1307C53.7074 9.54411 54.0379 8.52399 54.8628 8.40384L61.7556 7.39785C62.0837 7.35073 62.3673 7.14341 62.5149 6.8442L65.5969 0.565613C65.9672 -0.185933 67.0335 -0.185933 67.4038 0.565613Z" fill="#FFE338"/>
<path d="M66.5008 12.0674V20.5087C66.3391 20.5087 66.1798 20.5488 66.0321 20.6242L59.8682 23.8824C59.13 24.2735 58.2652 23.6421 58.4058 22.8152L59.5823 15.9146C59.6011 15.8016 59.6011 15.6885 59.5823 15.5777C59.6409 15.4552 59.6714 15.3893 59.6714 15.3893L66.4985 12.0674H66.5008Z" fill="#FFB81C"/>
<path d="M73.1338 23.8822L66.9676 20.6239C66.8199 20.5462 66.6606 20.5085 66.4988 20.5085V12.0671L73.326 15.389L73.4385 15.4668C73.3986 15.6105 73.3892 15.7613 73.415 15.9144L74.5916 22.815C74.7322 23.6419 73.8697 24.2733 73.1291 23.8822H73.1338Z" fill="#FFD31E"/>
<path d="M66.5012 20.5061C66.4824 19.8017 66.473 19.0996 66.459 18.3952L66.4355 16.2843C66.4262 15.5798 66.4285 14.8778 66.4238 14.1733L66.4191 12.0624C66.4191 12.0153 66.4566 11.9776 66.5012 11.9776C66.5152 11.9776 66.5269 11.98 66.5387 11.987L68.2425 12.8234C68.8097 13.1014 69.3792 13.3794 69.944 13.6668L71.6408 14.5173L73.3306 15.3843L71.6057 14.5903L69.8878 13.7799C69.3136 13.5113 68.7441 13.2357 68.1745 12.9624L66.4637 12.1378L66.5832 12.0624L66.5785 14.1733C66.5738 14.8778 66.5762 15.5798 66.5668 16.2843L66.5433 18.3952C66.5293 19.0996 66.5199 19.8017 66.5012 20.5061Z" fill="#FFE338"/>
<path d="M66.5015 12.0671L59.6744 15.3889C59.6744 15.3889 59.6135 15.3607 59.501 15.3112C59.4517 15.2028 59.3814 15.1039 59.2947 15.019L54.305 10.1305C53.7074 9.54619 54.0379 8.52607 54.8628 8.40356L61.7556 7.39521C61.84 7.38343 61.922 7.35988 61.997 7.32925L62.2782 7.31982C62.3626 7.36223 66.4992 12.0671 66.4992 12.0671H66.5015Z" fill="#FFD20F"/>
<path d="M73.3283 15.3891C72.7494 15.1299 72.1776 14.8637 71.6034 14.5975L69.8854 13.7894L68.1746 12.9671C67.605 12.6915 67.0332 12.4206 66.466 12.1402C66.4262 12.119 66.4098 12.0695 66.4285 12.0295C66.4309 12.0224 66.4355 12.0153 66.4402 12.0106C67.1504 11.2237 67.8488 10.4298 68.5659 9.65233L69.637 8.48143L70.7198 7.31995L69.6933 8.53326L68.655 9.73479C67.966 10.5382 67.2582 11.3251 66.5598 12.1214L66.534 11.9918C67.1058 12.2627 67.6707 12.5454 68.2402 12.8258L69.9417 13.6645L71.6385 14.5174C72.201 14.8071 72.7658 15.0922 73.326 15.3867L73.3283 15.3891Z" fill="#FFB81C"/>
<path d="M59.6768 15.3889C60.2556 15.1298 60.8275 14.8636 61.4017 14.5973L63.1196 13.7892L64.8305 12.967C65.4 12.6914 65.9719 12.4204 66.539 12.1401C66.5789 12.1189 66.5953 12.0694 66.5765 12.0294C66.5742 12.0223 66.5695 12.0152 66.5648 12.0105C65.8547 11.2236 65.1563 10.4297 64.4391 9.65221L63.368 8.4813L62.2853 7.31982L63.3118 8.53314L64.35 9.73467C65.0391 10.538 65.7469 11.3249 66.4453 12.1212L66.4711 11.9917C65.8992 12.2626 65.3344 12.5453 64.7649 12.8257L63.0634 13.6644L61.3665 14.5172C60.8041 14.807 60.2392 15.0921 59.6791 15.3866L59.6768 15.3889Z" fill="#FFE338"/>
<path d="M70.7202 7.31982C70.0429 8.13498 69.3515 8.936 68.6578 9.73702C68.3133 10.1399 67.9617 10.5333 67.6125 10.9315L66.5626 12.1236C66.5321 12.1589 66.4782 12.1613 66.443 12.1307L66.436 12.1236L65.386 10.9315C65.0368 10.5333 64.6829 10.1399 64.3408 9.73702L63.3025 8.53549C62.9603 8.13027 62.6158 7.72976 62.2783 7.31982C62.6439 7.70149 63.0025 8.09257 63.3634 8.47895L64.4368 9.64985C64.7954 10.0386 65.147 10.4367 65.5009 10.8278L66.5626 12.0105H66.436L67.4977 10.8278C67.8516 10.4344 68.2031 10.0386 68.5617 9.64985C69.2742 8.86768 69.9914 8.08786 70.7202 7.31982Z" fill="#FFF07D"/>
</g>
<g style="mix-blend-mode:luminosity">
<g clip-path="url(#clip3_2_279)">
<path d="M94.4038 0.565613L97.4858 6.8442C97.6334 7.14341 97.917 7.35073 98.2451 7.39785L105.138 8.40384C105.965 8.52399 106.293 9.54411 105.696 10.1307L100.708 15.017C100.472 15.2502 100.361 15.5848 100.418 15.9122L101.594 22.8128C101.735 23.6397 100.872 24.2711 100.132 23.88L93.9679 20.6218C93.675 20.4663 93.3234 20.4663 93.0305 20.6218L86.8666 23.88C86.1283 24.2711 85.2635 23.6397 85.4041 22.8128L86.5807 15.9122C86.6369 15.5848 86.5291 15.2479 86.29 15.017L81.305 10.1307C80.7074 9.54411 81.0379 8.52399 81.8628 8.40384L88.7556 7.39785C89.0837 7.35073 89.3673 7.14341 89.5149 6.8442L92.5969 0.565613C92.9672 -0.185933 94.0335 -0.185933 94.4038 0.565613Z" fill="#FFE338"/>
<path d="M93.5008 12.0674V20.5087C93.3391 20.5087 93.1798 20.5488 93.0321 20.6242L86.8682 23.8824C86.13 24.2735 85.2652 23.6421 85.4058 22.8152L86.5823 15.9146C86.6011 15.8016 86.6011 15.6885 86.5823 15.5777C86.6409 15.4552 86.6714 15.3893 86.6714 15.3893L93.4985 12.0674H93.5008Z" fill="#FFB81C"/>
<path d="M100.134 23.8822L93.9676 20.6239C93.8199 20.5462 93.6606 20.5085 93.4988 20.5085V12.0671L100.326 15.389L100.438 15.4668C100.399 15.6105 100.389 15.7613 100.415 15.9144L101.592 22.815C101.732 23.6419 100.87 24.2733 100.129 23.8822H100.134Z" fill="#FFD31E"/>
<path d="M93.5012 20.5061C93.4824 19.8017 93.473 19.0996 93.459 18.3952L93.4355 16.2843C93.4262 15.5798 93.4285 14.8778 93.4238 14.1733L93.4191 12.0624C93.4191 12.0153 93.4566 11.9776 93.5012 11.9776C93.5152 11.9776 93.5269 11.98 93.5387 11.987L95.2425 12.8234C95.8097 13.1014 96.3792 13.3794 96.944 13.6668L98.6408 14.5173L100.331 15.3843L98.6057 14.5903L96.8878 13.7799C96.3136 13.5113 95.7441 13.2357 95.1745 12.9624L93.4637 12.1378L93.5832 12.0624L93.5785 14.1733C93.5738 14.8778 93.5762 15.5798 93.5668 16.2843L93.5433 18.3952C93.5293 19.0996 93.5199 19.8017 93.5012 20.5061Z" fill="#FFE338"/>
<path d="M93.5015 12.0671L86.6744 15.3889C86.6744 15.3889 86.6135 15.3607 86.501 15.3112C86.4517 15.2028 86.3814 15.1039 86.2947 15.019L81.305 10.1305C80.7074 9.54619 81.0379 8.52607 81.8628 8.40356L88.7556 7.39521C88.84 7.38343 88.922 7.35988 88.997 7.32925L89.2782 7.31982C89.3626 7.36223 93.4992 12.0671 93.4992 12.0671H93.5015Z" fill="#FFD20F"/>
<path d="M100.328 15.3891C99.7494 15.1299 99.1776 14.8637 98.6034 14.5975L96.8854 13.7894L95.1746 12.9671C94.605 12.6915 94.0332 12.4206 93.466 12.1402C93.4262 12.119 93.4098 12.0695 93.4285 12.0295C93.4309 12.0224 93.4355 12.0153 93.4402 12.0106C94.1504 11.2237 94.8488 10.4298 95.5659 9.65233L96.637 8.48143L97.7198 7.31995L96.6933 8.53326L95.655 9.73479C94.966 10.5382 94.2582 11.3251 93.5598 12.1214L93.534 11.9918C94.1058 12.2627 94.6707 12.5454 95.2402 12.8258L96.9417 13.6645L98.6385 14.5174C99.201 14.8071 99.7658 15.0922 100.326 15.3867L100.328 15.3891Z" fill="#FFB81C"/>
<path d="M86.6768 15.3889C87.2556 15.1298 87.8275 14.8636 88.4017 14.5973L90.1196 13.7892L91.8305 12.967C92.4 12.6914 92.9719 12.4204 93.539 12.1401C93.5789 12.1189 93.5953 12.0694 93.5765 12.0294C93.5742 12.0223 93.5695 12.0152 93.5648 12.0105C92.8547 11.2236 92.1563 10.4297 91.4391 9.65221L90.368 8.4813L89.2853 7.31982L90.3118 8.53314L91.35 9.73467C92.0391 10.538 92.7469 11.3249 93.4453 12.1212L93.4711 11.9917C92.8992 12.2626 92.3344 12.5453 91.7649 12.8257L90.0634 13.6644L88.3665 14.5172C87.8041 14.807 87.2392 15.0921 86.6791 15.3866L86.6768 15.3889Z" fill="#FFE338"/>
<path d="M97.7202 7.31982C97.0429 8.13498 96.3515 8.936 95.6578 9.73702C95.3133 10.1399 94.9617 10.5333 94.6125 10.9315L93.5626 12.1236C93.5321 12.1589 93.4782 12.1613 93.443 12.1307L93.436 12.1236L92.386 10.9315C92.0368 10.5333 91.6829 10.1399 91.3408 9.73702L90.3025 8.53549C89.9603 8.13027 89.6158 7.72976 89.2783 7.31982C89.6439 7.70149 90.0025 8.09257 90.3634 8.47895L91.4368 9.64985C91.7954 10.0386 92.147 10.4367 92.5009 10.8278L93.5626 12.0105H93.436L94.4977 10.8278C94.8516 10.4344 95.2031 10.0386 95.5617 9.64985C96.2742 8.86768 96.9914 8.08786 97.7202 7.31982Z" fill="#FFF07D"/>
</g>
</g>
<g style="mix-blend-mode:luminosity">
<g clip-path="url(#clip4_2_279)">
<path d="M121.404 0.565613L124.486 6.8442C124.633 7.14341 124.917 7.35073 125.245 7.39785L132.138 8.40384C132.965 8.52399 133.293 9.54411 132.696 10.1307L127.708 15.017C127.472 15.2502 127.361 15.5848 127.418 15.9122L128.594 22.8128C128.735 23.6397 127.872 24.2711 127.132 23.88L120.968 20.6218C120.675 20.4663 120.323 20.4663 120.03 20.6218L113.867 23.88C113.128 24.2711 112.264 23.6397 112.404 22.8128L113.581 15.9122C113.637 15.5848 113.529 15.2479 113.29 15.017L108.305 10.1307C107.707 9.54411 108.038 8.52399 108.863 8.40384L115.756 7.39785C116.084 7.35073 116.367 7.14341 116.515 6.8442L119.597 0.565613C119.967 -0.185933 121.034 -0.185933 121.404 0.565613Z" fill="#FFE338"/>
<path d="M120.501 12.0674V20.5087C120.339 20.5087 120.18 20.5488 120.032 20.6242L113.868 23.8824C113.13 24.2735 112.265 23.6421 112.406 22.8152L113.582 15.9146C113.601 15.8016 113.601 15.6885 113.582 15.5777C113.641 15.4552 113.671 15.3893 113.671 15.3893L120.499 12.0674H120.501Z" fill="#FFB81C"/>
<path d="M127.134 23.8822L120.968 20.6239C120.82 20.5462 120.661 20.5085 120.499 20.5085V12.0671L127.326 15.389L127.438 15.4668C127.399 15.6105 127.389 15.7613 127.415 15.9144L128.592 22.815C128.732 23.6419 127.87 24.2733 127.129 23.8822H127.134Z" fill="#FFD31E"/>
<path d="M120.501 20.5061C120.482 19.8017 120.473 19.0996 120.459 18.3952L120.436 16.2843C120.426 15.5798 120.429 14.8778 120.424 14.1733L120.419 12.0624C120.419 12.0153 120.457 11.9776 120.501 11.9776C120.515 11.9776 120.527 11.98 120.539 11.987L122.243 12.8234C122.81 13.1014 123.379 13.3794 123.944 13.6668L125.641 14.5173L127.331 15.3843L125.606 14.5903L123.888 13.7799C123.314 13.5113 122.744 13.2357 122.175 12.9624L120.464 12.1378L120.583 12.0624L120.578 14.1733C120.574 14.8778 120.576 15.5798 120.567 16.2843L120.543 18.3952C120.529 19.0996 120.52 19.8017 120.501 20.5061Z" fill="#FFE338"/>
<path d="M120.502 12.0671L113.674 15.3889C113.674 15.3889 113.613 15.3607 113.501 15.3112C113.452 15.2028 113.381 15.1039 113.295 15.019L108.305 10.1305C107.707 9.54619 108.038 8.52607 108.863 8.40356L115.756 7.39521C115.84 7.38343 115.922 7.35988 115.997 7.32925L116.278 7.31982C116.363 7.36223 120.499 12.0671 120.499 12.0671H120.502Z" fill="#FFD20F"/>
<path d="M127.328 15.3891C126.749 15.1299 126.178 14.8637 125.603 14.5975L123.885 13.7894L122.175 12.9671C121.605 12.6915 121.033 12.4206 120.466 12.1402C120.426 12.119 120.41 12.0695 120.429 12.0295C120.431 12.0224 120.436 12.0153 120.44 12.0106C121.15 11.2237 121.849 10.4298 122.566 9.65233L123.637 8.48143L124.72 7.31995L123.693 8.53326L122.655 9.73479C121.966 10.5382 121.258 11.3251 120.56 12.1214L120.534 11.9918C121.106 12.2627 121.671 12.5454 122.24 12.8258L123.942 13.6645L125.639 14.5174C126.201 14.8071 126.766 15.0922 127.326 15.3867L127.328 15.3891Z" fill="#FFB81C"/>
<path d="M113.677 15.3889C114.256 15.1298 114.828 14.8636 115.402 14.5973L117.12 13.7892L118.831 12.967C119.4 12.6914 119.972 12.4204 120.539 12.1401C120.579 12.1189 120.595 12.0694 120.577 12.0294C120.574 12.0223 120.57 12.0152 120.565 12.0105C119.855 11.2236 119.156 10.4297 118.439 9.65221L117.368 8.4813L116.285 7.31982L117.312 8.53314L118.35 9.73467C119.039 10.538 119.747 11.3249 120.445 12.1212L120.471 11.9917C119.899 12.2626 119.334 12.5453 118.765 12.8257L117.063 13.6644L115.367 14.5172C114.804 14.807 114.239 15.0921 113.679 15.3866L113.677 15.3889Z" fill="#FFE338"/>
<path d="M124.72 7.31982C124.043 8.13498 123.352 8.936 122.658 9.73702C122.313 10.1399 121.962 10.5333 121.613 10.9315L120.563 12.1236C120.532 12.1589 120.478 12.1613 120.443 12.1307L120.436 12.1236L119.386 10.9315C119.037 10.5333 118.683 10.1399 118.341 9.73702L117.303 8.53549C116.96 8.13027 116.616 7.72976 116.278 7.31982C116.644 7.70149 117.003 8.09257 117.363 8.47895L118.437 9.64985C118.795 10.0386 119.147 10.4367 119.501 10.8278L120.563 12.0105H120.436L121.498 10.8278C121.852 10.4344 122.203 10.0386 122.562 9.64985C123.274 8.86768 123.991 8.08786 124.72 7.31982Z" fill="#FFF07D"/>
</g>
</g>
<defs>
<clipPath id="clip0_2_279">
<rect width="25" height="24" fill="white"/>
</clipPath>
<clipPath id="clip1_2_279">
<rect width="25" height="24" fill="white" transform="translate(27)"/>
</clipPath>
<clipPath id="clip2_2_279">
<rect width="25" height="24" fill="white" transform="translate(54)"/>
</clipPath>
<clipPath id="clip3_2_279">
<rect width="25" height="24" fill="white" transform="translate(81)"/>
</clipPath>
<clipPath id="clip4_2_279">
<rect width="25" height="24" fill="white" transform="translate(108)"/>
</clipPath>
</defs>
</svg>
